P3
64 64
255
255 255 255 255 255 255 255 255 255 255 255 255 255 255 255 255 255 255 255 255 255 255
255 255 255 255 255 255 255 255 255 255 255 255 255 255 255 255 255 255 255 255 255 255
255 255 255 255 255 255 255 255 255 255 255 255 255 255 255 255 255 255 255   2 253 255
  2 253 255   2 253 255   2 253 255   2 253 255   2 253 255   2 253 255   2 253 255   2
253 255   2 253 255   2 253 255   2 253 255   2 253 255   2 253 255   2 253 255   2 253
255   2 253 255   2 253 255   2 253 255   2 253 255   2 253 255   2 253 255 255 252 128
255 252 128 255 252 128 255 252 128 255 252 128 255 252 128 255 252 128 255 252 128 255
252 128 255 252 128 255 252 128 255 252 128 255 252 128 255 252 128 255 252 128 255 252
128 255 252 128 255 252 128 255 252 128 255 252 128 255 252 128
255 255 255 255 255 255 255 255 255 255 255 255 255 255 255 255 255 255 255 255 255 255
255 255 255 255 255 255 255 255 255 255 255 255 255 255 255 255 255 255 255 255 255 255
255 255 255 255 255 255 255 255 255 255 255 255 255 255 255 255 255 255 255   2 253 255
  2 253 255   2 253 255   2 253 255   2 253 255   2 253 255   2 253 255   2 253 255   2
253 255   2 253 255   2 253 255   2 253 255   2 253 255   2 253 255   2 253 255   2 253
255   2 253 255   2 253 255   2 253 255   2 253 255   2 253 255   2 253 255 255 252 128
255 252 128 255 252 128 255 252 128 255 252 128 255 252 128 255 252 128 255 252 128 255
252 128 255 252 128 255 252 128 255 252 128 255 252 128 255 252 128 255 252 128 255 252
128 255 252 128 255 252 128 255 252 128 255 252 128 255 252 128
255 255 255 255 255 255 255 255 255 255 255 255 255 255 255 255 255 255 255 255 255 255
255 255 255 255 255 255 255 255 255 255 255 255 255 255 255 255 255 255 255 255 255 255
255 255 255 255 255 255 255 255 255 255 255 255 255 255 255 255 255 255 255   2 253 255
  2 253 255   2 253 255   2 253 255   2 253 255   2 253 255   2 253 255   2 253 255   2
253 255   2 253 255   2 253 255   2 253 255   2 253 255   2 253 255   2 253 255   2 253
255   2 253 255   2 253 255   2 253 255   2 253 255   2 253 255   2 253 255 255 252 128
255 252 128 255 252 128 255 252 128 255 252 128 255 252 128 255 252 128 255 252 128 255
252 128 255 252 128 255 252 128 255 252 128 255 252 128 255 252 128 255 252 128 255 252
128 255 252 128 255 252 128 255 252 128 255 252 128 255 252 128
255 255 255 255 255 255 255 255 255 255 255 255 255 255 255 255 255 255 255 255 255 255
255 255 255 255 255 255 255 255 255 255 255 255 255 255 255 255 255 255 255 255 255 255
255 255 255 255 255 255 255 255 255 255 255 255 255 255 255 255 255 255 255   2 253 255
  2 253 255   2 253 255   2 253 255   2 253 255   2 253 255   2 253 255   2 253 255   2
253 255   2 253 255   2 253 255   2 253 255   2 253 255   2 253 255   2 253 255   2 253
255   2 253 255   2 253 255   2 253 255   2 253 255   2 253 255   2 253 255 255 252 128
255 252 128 255 252 128 255 252 128 255 252 128 255 252 128 255 252 128 255 252 128 255
252 128 255 252 128 255 252 128 255 252 128 255 252 128 255 252 128 255 252 128 255 252
128 255 252 128 255 252 128 255 252 128 255 252 128 255 252 128
255 255 255 255 255 255 255 255 255 255 255 255 255 255 255 255 255 255 255 255 255 255
255 255 255 255 255 255 255 255 255 255 255 255 255 255 255 255 255 255 255 255 255 255
255 255 255 255 255 255 255 255 255 255 255 255 255 255 255 255 255 255 255   2 253 255
  2 253 255   2 253 255   2 253 255   2 253 255   2 253 255   2 253 255   2 253 255   2
253 255   2 253 255   2 253 255   2 253 255   2 253 255   2 253 255   2 253 255   2 253
255   2 253 255   2 253 255   2 253 255   2 253 255   2 253 255   2 253 255 255 252 128
255 252 128 255 252 128 255 252 128 255 252 128 255 252 128 255 252 128 255 252 128 255
252 128 255 252 128 255 252 128 255 252 128 255 252 128 255 252 128 255 252 128 255 252
128 255 252 128 255 252 128 255 252 128 255 252 128 255 252 128
255 255 255 255 255 255 255 255 255 255 255 255 255 255 255 255 255 255 255 255 255 255
255 255 255 255 255 255 255 255 255 255 255 255 255 255 255 255 255 255 255 255 255 255
255 255 255 255 255 255 255 255 255 255 255 255 255 255 255 255 255 255 255   2 253 255
  2 253 255   2 253 255   2 253 255   2 253 255   2 253 255   2 253 255   2 253 255   2
253 255   2 253 255   2 253 255   2 253 255   2 253 255   2 253 255   2 253 255   2 253
255   2 253 255   2 253 255   2 253 255   2 253 255   2 253 255   2 253 255 255 252 128
255 252 128 255 252 128 255 252 128 255 252 128 255 252 128 255 252 128 255 252 128 255
252 128 255 252 128 255 252 128 255 252 128 255 252 128 255 252 128 255 252 128 255 252
128 255 252 128 255 252 128 255 252 128 255 252 128 255 252 128
255 255 255 255 255 255 255 255 255 255 255 255 255 255 255 255 255 255 255 255 255 255
255 255 255 255 255 255 255 255 255 255 255 255 255 255 255 255 255 255 255 255 255 255
255 255 255 255 255 255 255 255 255 255 255 255 255 255 255 255 255 255 255   2 253 255
  2 253 255   2 253 255   2 253 255   2 253 255   2 253 255   2 253 255   2 253 255   2
253 255   2 253 255   2 253 255   2 253 255   2 253 255   2 253 255   2 253 255   2 253
255   2 253 255   2 253 255   2 253 255   2 253 255   2 253 255   2 253 255 255 252 128
255 252 128 255 252 128 255 252 128 255 252 128 255 252 128 255 252 128 255 252 128 255
252 128 255 252 128 255 252 128 255 252 128 255 252 128 255 252 128 255 252 128 255 252
128 255 252 128 255 252 128 255 252 128 255 252 128 255 252 128
255 255 255 255 255 255 255 255 255 255 255 255 255 255 255 255 255 255 255 255 255 255
255 255 255 255 255 255 255 255 255 255 255 255 255 255 255 255 255 255 255 255 255 255
255 255 255 255 255 255 255 255 255 255 255 255 255 255 255 255 255 255 255   2 253 255
  2 253 255   2 253 255   2 253 255   2 253 255   2 253 255   2 253 255   2 253 255   2
253 255   2 253 255   2 253 255   2 253 255   2 253 255   2 253 255   2 253 255   2 253
255   2 253 255   2 253 255   2 253 255   2 253 255   2 253 255   2 253 255 255 252 128
255 252 128 255 252 128 255 252 128 255 252 128 255 252 128 255 252 128 255 252 128 255
252 128 255 252 128 255 252 128 255 252 128 255 252 128 255 252 128 255 252 128 255 252
128 255 252 128 255 252 128 255 252 128 255 252 128 255 252 128
255 255 255 255 255 255 255 255 255 255 255 255 255 255 255 255 255 255 255 255 255 255
255 255 255 255 255 255 255 255 255 255 255 255 255 255 255 255 255 255 255 255 255 255
255 255 255 255 255 255 255 255 255 255 255 255 255 255 255 255 255 255 255   2 253 255
  2 253 255   2 253 255   2 253 255   2 253 255   2 253 255   2 253 255   2 253 255   2
253 255   2 253 255   2 253 255   2 253 255   2 253 255   2 253 255   2 253 255   2 253
255   2 253 255   2 253 255   2 253 255   2 253 255   2 253 255   2 253 255 255 252 128
255 252 128 255 252 128 255 252 128 255 252 128 255 252 128 255 252 128 255 252 128 255
252 128 255 252 128 255 252 128 255 252 128 255 252 128 255 252 128 255 252 128 255 252
128 255 252 128 255 252 128 255 252 128 255 252 128 255 252 128
255 255 255 255 255 255 255 255 255 255 255 255 255 255 255 255 255 255 255 255 255 255
255 255 255 255 255 255 255 255 255 255 255 255 255 255 255 255 255 255 255 255 255 255
255 255 255 255 255 255 255 255 255 255 255 255 255 255 255 255 255 255 255   2 253 255
  2 253 255   2 253 255   2 253 255   2 253 255   2 253 255   2 253 255   2 253 255   2
253 255   2 253 255   2 253 255   2 253 255   2 253 255   2 253 255   2 253 255   2 253
255   2 253 255   2 253 255   2 253 255   2 253 255   2 253 255   2 253 255 255 252 128
255 252 128 255 252 128 255 252 128 255 252 128 255 252 128 255 252 128 255 252 128 255
252 128 255 252 128 255 252 128 255 252 128 255 252 128 255 252 128 255 252 128 255 252
128 255 252 128 255 252 128 255 252 128 255 252 128 255 252 128
255 255 255 255 255 255 255 255 255 255 255 255 255 255 255 255 255 255 255 255 255 255
255 255 255 255 255 255 255 255 255 255 255 255 255 255 255 255 255 255 255 255 255 255
255 255 255 255 255 255 255 255 255 255 255 255 255 255 255 255 255 255 255   2 253 255
  2 253 255   2 253 255   2 253 255   2 253 255   2 253 255   2 253 255   2 253 255   2
253 255   2 253 255   2 253 255   2 253 255   2 253 255   2 253 255   2 253 255   2 253
255   2 253 255   2 253 255   2 253 255   2 253 255   2 253 255   2 253 255 255 252 128
255 252 128 255 252 128 255 252 128 255 252 128 255 252 128 255 252 128 255 252 128 255
252 128 255 252 128 255 252 128 255 252 128 255 252 128 255 252 128 255 252 128 255 252
128 255 252 128 255 252 128 255 252 128 255 252 128 255 252 128
255 255 255 255 255 255 255 255 255 255 255 255 255 255 255 255 255 255 255 255 255 255
255 255 255 255 255 255 255 255 255 255 255   0   0   0 255 255 255 255 255 255 255 255
255   0   0   0 255 255 255 255 255 255 255 255 255 255 255 255 255 255 255   2 253 255
  2 253 255   2 253 255   2 253 255   2 253 255   2 253 255   2 253 255   2 253 255   2
253 255   2 253 255   2 253 255   2 253 255   0   0   0   2 253 255   2 253 255   2 253
255   0   0   0   2 253 255   2 253 255   2 253 255   2 253 255   2 253 255 255 252 128
255 252 128 255 252 128 255 252 128 255 252 128 255 252 128 255 252 128 255 252 128 255
252 128 255 252 128 255 252 128   0   0   0   0   0   0   0   0   0   0   0   0   0   0
  0 255 252 128 255 252 128 255 252 128 255 252 128 255 252 128
255 255 255 255 255 255 255 255 255 255 255 255 255 255 255 255 255 255   0   0   0 255
255 255 255 255 255 255 255 255 255 255 255   0   0   0 255 255 255 255 255 255 255 255
255   0   0   0 255 255 255 255 255 255 255 255 255 255 255 255 255 255 255   2 253 255
  2 253 255   2 253 255   2 253 255   2 253 255   2 253 255   2 253 255   0   0   0   2
253 255   2 253 255   2 253 255   2 253 255   0   0   0   2 253 255   2 253 255   2 253
255   0   0   0   2 253 255   2 253 255   2 253 255   2 253 255   2 253 255 255 252 128
255 252 128 255 252 128 255 252 128 255 252 128 255 252 128   0   0   0 255 252 128 255
252 128 255 252 128 255 252 128 255 252 128 255 252 128 255 252 128 255 252 128   0   0
  0 255 252 128 255 252 128 255 252 128 255 252 128 255 252 128
255 255 255 255 255 255 255 255 255 255 255 255 255 255 255 255 255 255   0   0   0 255
255 255 255 255 255 255 255 255 255 255 255   0   0   0 255 255 255 255 255 255 255 255
255   0   0   0 255 255 255 255 255 255 255 255 255 255 255 255 255 255 255   2 253 255
  2 253 255   2 253 255   2 253 255   2 253 255   2 253 255   2 253 255   0   0   0   2
253 255   2 253 255   2 253 255   2 253 255   0   0   0   2 253 255   2 253 255   2 253
255   0   0   0   2 253 255   2 253 255   2 253 255   2 253 255   2 253 255 255 252 128
255 252 128 255 252 128 255 252 128 255 252 128 255 252 128   0   0   0 255 252 128 255
252 128 255 252 128 255 252 128 255 252 128 255 252 128 255 252 128   0   0   0 255 252
128 255 252 128 255 252 128 255 252 128 255 252 128 255 252 128
255 255 255 255 255 255 255 255 255 255 255 255 255 255 255 255 255 255   0   0   0 255
255 255 255 255 255 255 255 255 255 255 255 255 255 255   0   0   0 255 255 255   0   0
  0 255 255 255 255 255 255 255 255 255 255 255 255 255 255 255 255 255 255   2 253 255
  2 253 255   2 253 255   2 253 255   2 253 255   2 253 255   2 253 255   0   0   0   2
253 255   2 253 255   2 253 255   2 253 255   0   0   0   2 253 255   2 253 255   2 253
255   0   0   0   2 253 255   2 253 255   2 253 255   2 253 255   2 253 255 255 252 128
255 252 128 255 252 128 255 252 128 255 252 128 255 252 128   0   0   0 255 252 128 255
252 128 255 252 128 255 252 128 255 252 128 255 252 128 255 252 128   0   0   0 255 252
128 255 252 128 255 252 128 255 252 128 255 252 128 255 252 128
255 255 255 255 255 255 255 255 255 255 255 255   0   0   0   0   0   0   0   0   0   0
  0   0   0   0   0 255 255 255 255 255 255 255 255 255 255 255 255   0   0   0 255 255
255 255 255 255 255 255 255 255 255 255 255 255 255 255 255 255 255 255 255   2 253 255
  2 253 255   2 253 255   2 253 255   2 253 255   0   0   0   0   0   0   0   0   0   0
  0   0   0   0   0   2 253 255   2 253 255   2 253 255   0   0   0   2 253 255   0   0
  0   2 253 255   2 253 255   2 253 255   2 253 255   2 253 255   2 253 255 255 252 128
255 252 128 255 252 128 255 252 128   0   0   0   0   0   0   0   0   0   0   0   0   0
  0   0 255 252 128 255 252 128 255 252 128 255 252 128   0   0   0 255 252 128 255 252
128 255 252 128 255 252 128 255 252 128 255 252 128 255 252 128
255 255 255 255 255 255 255 255 255 255 255 255 255 255 255 255 255 255   0   0   0 255
255 255 255 255 255 255 255 255 255 255 255 255 255 255   0   0   0 255 255 255   0   0
  0 255 255 255 255 255 255 255 255 255 255 255 255 255 255 255 255 255 255   2 253 255
  2 253 255   2 253 255   2 253 255   2 253 255   2 253 255   2 253 255   0   0   0   2
253 255   2 253 255   2 253 255   2 253 255   2 253 255   2 253 255   0   0   0   2 253
255   2 253 255   2 253 255   2 253 255   2 253 255   2 253 255   2 253 255 255 252 128
255 252 128 255 252 128 255 252 128 255 252 128 255 252 128   0   0   0 255 252 128 255
252 128 255 252 128 255 252 128 255 252 128   0   0   0 255 252 128 255 252 128 255 252
128 255 252 128 255 252 128 255 252 128 255 252 128 255 252 128
255 255 255 255 255 255 255 255 255 255 255 255 255 255 255 255 255 255   0   0   0 255
255 255 255 255 255 255 255 255 255 255 255   0   0   0 255 255 255 255 255 255 255 255
255   0   0   0 255 255 255 255 255 255 255 255 255 255 255 255 255 255 255   2 253 255
  2 253 255   2 253 255   2 253 255   2 253 255   2 253 255   2 253 255   0   0   0   2
253 255   2 253 255   2 253 255   2 253 255   2 253 255   2 253 255   0   0   0   2 253
255   2 253 255   2 253 255   2 253 255   2 253 255   2 253 255   2 253 255 255 252 128
255 252 128 255 252 128 255 252 128 255 252 128 255 252 128   0   0   0 255 252 128 255
252 128 255 252 128 255 252 128 255 252 128   0   0   0 255 252 128 255 252 128 255 252
128 255 252 128 255 252 128 255 252 128 255 252 128 255 252 128
255 255 255 255 255 255 255 255 255 255 255 255 255 255 255 255 255 255   0   0   0 255
255 255 255 255 255 255 255 255 255 255 255   0   0   0 255 255 255 255 255 255 255 255
255   0   0   0 255 255 255 255 255 255 255 255 255 255 255 255 255 255 255   2 253 255
  2 253 255   2 253 255   2 253 255   2 253 255   2 253 255   2 253 255   0   0   0   2
253 255   2 253 255   2 253 255   2 253 255   2 253 255   2 253 255   0   0   0   2 253
255   2 253 255   2 253 255   2 253 255   2 253 255   2 253 255   2 253 255 255 252 128
255 252 128 255 252 128 255 252 128 255 252 128 255 252 128   0   0   0 255 252 128 255
252 128 255 252 128 255 252 128   0   0   0 255 252 128 255 252 128 255 252 128 255 252
128 255 252 128 255 252 128 255 252 128 255 252 128 255 252 128
255 255 255 255 255 255 255 255 255 255 255 255 255 255 255 255 255 255 255 255 255 255
255 255 255 255 255 255 255 255 255 255 255   0   0   0 255 255 255 255 255 255 255 255
255   0   0   0 255 255 255 255 255 255 255 255 255 255 255 255 255 255 255   2 253 255
  2 253 255   2 253 255   2 253 255   2 253 255   2 253 255   2 253 255   2 253 255   2
253 255   2 253 255   2 253 255   2 253 255   2 253 255   2 253 255   0   0   0   2 253
255   2 253 255   2 253 255   2 253 255   2 253 255   2 253 255   2 253 255 255 252 128
255 252 128 255 252 128 255 252 128 255 252 128 255 252 128 255 252 128 255 252 128 255
252 128 255 252 128 255 252 128   0   0   0   0   0   0   0   0   0   0   0   0   0   0
  0 255 252 128 255 252 128 255 252 128 255 252 128 255 252 128
255 255 255 255 255 255 255 255 255 255 255 255 255 255 255 255 255 255 255 255 255 255
255 255 255 255 255 255 255 255 255 255 255 255 255 255 255 255 255 255 255 255 255 255
255 255 255 255 255 255 255 255 255 255 255 255 255 255 255 255 255 255 255   2 253 255
  2 253 255   2 253 255   2 253 255   2 253 255   2 253 255   2 253 255   2 253 255   2
253 255   2 253 255   2 253 255   2 253 255   2 253 255   2 253 255   2 253 255   2 253
255   2 253 255   2 253 255   2 253 255   2 253 255   2 253 255   2 253 255 255 252 128
255 252 128 255 252 128 255 252 128 255 252 128 255 252 128 255 252 128 255 252 128 255
252 128 255 252 128 255 252 128 255 252 128 255 252 128 255 252 128 255 252 128 255 252
128 255 252 128 255 252 128 255 252 128 255 252 128 255 252 128
255 255 255 255 255 255 255 255 255 255 255 255 255 255 255 255 255 255 255 255 255 255
255 255 255 255 255 255 255 255 255 255 255 255 255 255 255 255 255 255 255 255 255 255
255 255 255 255 255 255 255 255 255 255 255 255 255 255 255 255 255 255 255   2 253 255
  2 253 255   2 253 255   2 253 255   2 253 255   2 253 255   2 253 255   2 253 255   2
253 255   2 253 255   2 253 255   2 253 255   2 253 255   2 253 255   2 253 255   2 253
255   2 253 255   2 253 255   2 253 255   2 253 255   2 253 255   2 253 255 255 252 128
255 252 128 255 252 128 255 252 128 255 252 128 255 252 128 255 252 128 255 252 128 255
252 128 255 252 128 255 252 128 255 252 128 255 252 128 255 252 128 255 252 128 255 252
128 255 252 128 255 252 128 255 252 128 255 252 128 255 252 128
255 255 255 255 255 255 255 255 255 255 255 255 255 255 255 255 255 255 255 255 255 255
255 255 255 255 255 255 255 255 255 255 255 255 255 255 255 255 255 255 255 255 255 255
255 255 255 255 255 255 255 255 255 255 255 255 255 255 255 255 255 255 255   2 253 255
  2 253 255   2 253 255   2 253 255   2 253 255   2 253 255   2 253 255   2 253 255   2
253 255   2 253 255   2 253 255   2 253 255   2 253 255   2 253 255   2 253 255   2 253
255   2 253 255   2 253 255   2 253 255   2 253 255   2 253 255   2 253 255 255 252 128
255 252 128 255 252 128 255 252 128 255 252 128 255 252 128 255 252 128 255 252 128 255
252 128 255 252 128 255 252 128 255 252 128 255 252 128 255 252 128 255 252 128 255 252
128 255 252 128 255 252 128 255 252 128 255 252 128 255 252 128
255 255 255 255 255 255 255 255 255 255 255 255 255 255 255 255 255 255 255 255 255 255
255 255 255 255 255 255 255 255 255 255 255 255 255 255 255 255 255 255 255 255 255 255
255 255 255 255 255 255 255 255 255 255 255 255 255 255 255 255 255 255 255   2 253 255
  2 253 255   2 253 255   2 253 255   2 253 255   2 253 255   2 253 255   2 253 255   2
253 255   2 253 255   2 253 255   2 253 255   2 253 255   2 253 255   2 253 255   2 253
255   2 253 255   2 253 255   2 253 255   2 253 255   2 253 255   2 253 255 255 252 128
255 252 128 255 252 128 255 252 128 255 252 128 255 252 128 255 252 128 255 252 128 255
252 128 255 252 128 255 252 128 255 252 128 255 252 128 255 252 128 255 252 128 255 252
128 255 252 128 255 252 128 255 252 128 255 252 128 255 252 128
255 255 255 255 255 255 255 255 255 255 255 255 255 255 255 255 255 255 255 255 255 255
255 255 255 255 255 255 255 255 255 255 255 255 255 255 255 255 255 255 255 255 255 255
255 255 255 255 255 255 255 255 255 255 255 255 255 255 255 255 255 255 255   2 253 255
  2 253 255   2 253 255   2 253 255   2 253 255   2 253 255   2 253 255   2 253 255   2
253 255   2 253 255   2 253 255   2 253 255   2 253 255   2 253 255   2 253 255   2 253
255   2 253 255   2 253 255   2 253 255   2 253 255   2 253 255   2 253 255 255 252 128
255 252 128 255 252 128 255 252 128 255 252 128 255 252 128 255 252 128 255 252 128 255
252 128 255 252 128 255 252 128 255 252 128 255 252 128 255 252 128 255 252 128 255 252
128 255 252 128 255 252 128 255 252 128 255 252 128 255 252 128
255 255 255 255 255 255   0   0   0   0   0   0   0   0   0 255 255 255 255 255 255 255
255 255 255 255 255 255 255 255 255 255 255 255 255 255 255 255 255 255 255 255 255 255
255 255 255 255 255 255 255 255 255 255 255 255 255 255 255 255 255 255 255   2 253 255
  2 253 255   0   0   0   0   0   0   0   0   0   2 253 255   2 253 255   2 253 255   2
253 255   2 253 255   2 253 255   2 253 255   2 253 255   2 253 255   2 253 255   2 253
255   2 253 255   2 253 255   2 253 255   2 253 255   2 253 255   2 253 255 255 252 128
255 252 128   0   0   0   0   0   0   0   0   0 255 252 128 255 252 128 255 252 128 255
252 128 255 252 128 255 252 128 255 252 128 255 252 128 255 252 128 255 252 128 255 252
128 255 252 128 255 252 128 255 252 128 255 252 128 255 252 128
255 255 255 255 255 255   0   0   0 255 255 255 255 255 255   0   0   0 255 255 255 255
255 255 255 255 255 255 255 255 255 255 255 255 255 255 255 255 255 255 255 255 255 255
255 255 255 255 255 255 255 255 255 255 255 255 255 255 255 255 255 255 255   2 253 255
  2 253 255   0   0   0   2 253 255   2 253 255   0   0   0   2 253 255   2 253 255   2
253 255   2 253 255   2 253 255   2 253 255   2 253 255   2 253 255   2 253 255   2 253
255   2 253 255   2 253 255   2 253 255   2 253 255   2 253 255   2 253 255 255 252 128
255 252 128   0   0   0 255 252 128 255 252 128   0   0   0 255 252 128 255 252 128 255
252 128 255 252 128 255 252 128 255 252 128 255 252 128 255 252 128 255 252 128 255 252
128 255 252 128 255 252 128 255 252 128 255 252 128 255 252 128
255 255 255 255 255 255   0   0   0   0   0   0   0   0   0 255 255 255 255 255 255 255
255 255 255 255 255 255 255 255 255 255 255 255 255 255 255 255 255 255 255 255 255 255
255 255 255 255 255 255 255 255 255 255 255 255 255 255 255 255 255 255 255   2 253 255
  2 253 255   0   0   0   0   0   0   0   0   0   2 253 255   2 253 255   2 253 255   2
253 255   2 253 255   2 253 255   2 253 255   2 253 255   2 253 255   2 253 255   2 253
255   2 253 255   2 253 255   2 253 255   2 253 255   2 253 255   2 253 255 255 252 128
255 252 128   0   0   0   0   0   0   0   0   0 255 252 128 255 252 128 255 252 128 255
252 128 255 252 128 255 252 128 255 252 128 255 252 128 255 252 128 255 252 128 255 252
128 255 252 128 255 252 128 255 252 128 255 252 128 255 252 128
255 255 255 255 255 255   0   0   0 255 255 255 255 255 255   0   0   0 255 255 255 255
255 255 255 255 255 255 255 255 255 255 255 255 255 255 255 255 255 255 255 255 255 255
255 255 255 255 255 255 255 255 255 255 255 255 255 255 255 255 255 255 255   2 253 255
  2 253 255   0   0   0   2 253 255   2 253 255   0   0   0   2 253 255   2 253 255   2
253 255   2 253 255   2 253 255   2 253 255   2 253 255   2 253 255   2 253 255   2 253
255   2 253 255   2 253 255   2 253 255   2 253 255   2 253 255   2 253 255 255 252 128
255 252 128   0   0   0 255 252 128 255 252 128   0   0   0 255 252 128 255 252 128 255
252 128 255 252 128 255 252 128 255 252 128 255 252 128 255 252 128 255 252 128 255 252
128 255 252 128 255 252 128 255 252 128 255 252 128 255 252 128
255 255 255 255 255 255   0   0   0 255 255 255 255 255 255   0   0   0 255 255 255 255
255 255 255 255 255 255 255 255 255 255 255 255 255 255 255 255 255 255 255 255 255 255
255 255 255 255 255 255 255 255 255 255 255 255 255 255 255 255 255 255 255   2 253 255
  2 253 255   0   0   0   2 253 255   2 253 255   0   0   0   2 253 255   2 253 255   2
253 255   2 253 255   2 253 255   2 253 255   2 253 255   2 253 255   2 253 255   2 253
255   2 253 255   2 253 255   2 253 255   2 253 255   2 253 255   2 253 255 255 252 128
255 252 128   0   0   0 255 252 128 255 252 128   0   0   0 255 252 128 255 252 128 255
252 128 255 252 128 255 252 128 255 252 128 255 252 128 255 252 128 255 252 128 255 252
128 255 252 128 255 252 128 255 252 128 255 252 128 255 252 128
255 255 255 255 255 255 255 255 255 255 255 255 255 255 255 255 255 255 255 255 255 255
255 255 255 255 255 255 255 255 255 255 255 255 255 255 255 255 255 255 255 255 255 255
255 255 255 255 255 255 255 255 255 255 255 255 255 255 255 255 255 255 255   2 253 255
  2 253 255   2 253 255   2 253 255   2 253 255   2 253 255   2 253 255   2 253 255   2
253 255   2 253 255   2 253 255   2 253 255   2 253 255   2 253 255   2 253 255   2 253
255   2 253 255   2 253 255   2 253 255   2 253 255   2 253 255   2 253 255 255 252 128
255 252 128 255 252 128 255 252 128 255 252 128 255 252 128 255 252 128 255 252 128 255
252 128 255 252 128 255 252 128 255 252 128 255 252 128 255 252 128 255 252 128 255 252
128 255 252 128 255 252 128 255 252 128 255 252 128 255 252 128
255 255 255 255 255 255 255 255 255 255 255 255 255 255 255 255 255 255 255 255 255 255
255 255 255 255 255 255 255 255 255 255 255 255 255 255 255 255 255 255 255 255 255 255
255 255 255 255 255 255 255 255 255 255 255 255 255 255 255 255 255 255 255   2 253 255
  2 253 255   2 253 255   2 253 255   2 253 255   2 253 255   2 253 255   2 253 255   2
253 255   2 253 255   2 253 255   2 253 255   2 253 255   2 253 255   2 253 255   2 253
255   2 253 255   2 253 255   2 253 255   2 253 255   2 253 255   2 253 255 255 252 128
255 252 128 255 252 128 255 252 128 255 252 128 255 252 128 255 252 128 255 252 128 255
252 128 255 252 128 255 252 128 255 252 128 255 252 128 255 252 128 255 252 128 255 252
128 255 252 128 255 252 128 255 252 128 255 252 128 255 252 128
128 128 128 128 128 128 128 128 128 128 128 128 128 128 128 128 128 128 128 128 128 128
128 128 128 128 128 128 128 128 128 128 128 128 128 128 128 128 128 128 128 128 128 128
128 128 128 128 128 128 128 128 128 128 128 128 128 128 128 128 128 128 128   0 128 128
  0 128 128   0 128 128   0 128 128   0 128 128   0 128 128   0 128 128   0 128 128   0
128 128   0 128 128   0 128 128   0 128 128   0 128 128   0 128 128   0 128 128   0 128
128   0 128 128   0 128 128   0 128 128   0 128 128   0 128 128   0 128 128 128 128  64
128 128  64 128 128  64 128 128  64 128 128  64 128 128  64 128 128  64 128 128  64 128
128  64 128 128  64 128 128  64 128 128  64 128 128  64 128 128  64 128 128  64 128 128
 64 128 128  64 128 128  64 128 128  64 128 128  64 128 128  64
128 128 128 128 128 128 128 128 128 128 128 128 128 128 128 128 128 128 128 128 128 128
128 128 128 128 128 128 128 128 128 128 128 128 128 128 128 128 128 128 128 128 128 128
128 128 128 128 128 128 128 128 128 128 128 128 128 128 128 128 128 128 128   0 128 128
  0 128 128   0 128 128   0 128 128   0 128 128   0 128 128   0 128 128   0 128 128   0
128 128   0 128 128   0 128 128   0 128 128   0 128 128   0 128 128   0 128 128   0 128
128   0 128 128   0 128 128   0 128 128   0 128 128   0 128 128   0 128 128 128 128  64
128 128  64 128 128  64 128 128  64 128 128  64 128 128  64 128 128  64 128 128  64 128
128  64 128 128  64 128 128  64 128 128  64 128 128  64 128 128  64 128 128  64 128 128
 64 128 128  64 128 128  64 128 128  64 128 128  64 128 128  64
128 128 128 128 128 128 128 128 128 128 128 128 128 128 128 128 128 128 128 128 128 128
128 128 128 128 128 128 128 128 128 128 128 128 128 128 128 128 128 128 128 128 128 128
128 128 128 128 128 128 128 128 128 128 128 128 128 128 128 128 128 128 128   0 128 128
  0 128 128   0 128 128   0 128 128   0 128 128   0 128 128   0 128 128   0 128 128   0
128 128   0 128 128   0 128 128   0 128 128   0 128 128   0 128 128   0 128 128   0 128
128   0 128 128   0 128 128   0 128 128   0 128 128   0 128 128   0 128 128 128 128  64
128 128  64 128 128  64 128 128  64 128 128  64 128 128  64 128 128  64 128 128  64 128
128  64 128 128  64 128 128  64 128 128  64 128 128  64 128 128  64 128 128  64 128 128
 64 128 128  64 128 128  64 128 128  64 128 128  64 128 128  64
128 128 128 128 128 128 128 128 128 128 128 128 128 128 128 128 128 128 128 128 128 128
128 128 128 128 128 128 128 128 128 128 128 128 128 128 128 128 128 128 128 128 128 128
128 128 128 128 128 128 128 128 128 128 128 128 128 128 128 128 128 128 128   0 128 128
  0 128 128   0 128 128   0 128 128   0 128 128   0 128 128   0 128 128   0 128 128   0
128 128   0 128 128   0 128 128   0 128 128   0 128 128   0 128 128   0 128 128   0 128
128   0 128 128   0 128 128   0 128 128   0 128 128   0 128 128   0 128 128 128 128  64
128 128  64 128 128  64 128 128  64 128 128  64 128 128  64 128 128  64 128 128  64 128
128  64 128 128  64 128 128  64 128 128  64 128 128  64 128 128  64 128 128  64 128 128
 64 128 128  64 128 128  64 128 128  64 128 128  64 128 128  64
128 128 128 128 128 128 128 128 128 128 128 128 128 128 128 128 128 128 128 128 128 128
128 128 128 128 128 128 128 128 128 128 128 128 128 128 128 128 128 128 128 128 128 128
128 128 128 128 128 128 128 128 128 128 128 128 128 128 128 128 128 128 128   0 128 128
  0 128 128   0 128 128   0 128 128   0 128 128   0 128 128   0 128 128   0 128 128   0
128 128   0 128 128   0 128 128   0 128 128   0 128 128   0 128 128   0 128 128   0 128
128   0 128 128   0 128 128   0 128 128   0 128 128   0 128 128   0 128 128 128 128  64
128 128  64 128 128  64 128 128  64 128 128  64 128 128  64 128 128  64 128 128  64 128
128  64 128 128  64 128 128  64 128 128  64 128 128  64 128 128  64 128 128  64 128 128
 64 128 128  64 128 128  64 128 128  64 128 128  64 128 128  64
128 128 128 128 128 128 128 128 128 128 128 128 128 128 128 128 128 128 128 128 128 128
128 128 128 128 128 128 128 128 128 128 128 128 128 128 128 128 128 128 128 128 128 128
128 128 128 128 128 128 128 128 128 128 128 128 128 128 128 128 128 128 128   0 128 128
  0 128 128   0 128 128   0 128 128   0 128 128   0 128 128   0 128 128   0 128 128   0
128 128   0 128 128   0 128 128   0 128 128   0 128 128   0 128 128   0 128 128   0 128
128   0 128 128   0 128 128   0 128 128   0 128 128   0 128 128   0 128 128 128 128  64
128 128  64 128 128  64 128 128  64 128 128  64 128 128  64 128 128  64 128 128  64 128
128  64 128 128  64 128 128  64 128 128  64 128 128  64 128 128  64 128 128  64 128 128
 64 128 128  64 128 128  64 128 128  64 128 128  64 128 128  64
128 128 128 128 128 128 128 128 128 128 128 128 128 128 128 128 128 128 128 128 128 128
128 128 128 128 128 128 128 128 128 128 128 128 128 128 128 128 128 128 128 128 128 128
128 128 128 128 128 128 128 128 128 128 128 128 128 128 128 128 128 128 128   0 128 128
  0 128 128   0 128 128   0 128 128   0 128 128   0 128 128   0 128 128   0 128 128   0
128 128   0 128 128   0 128 128   0 128 128   0 128 128   0 128 128   0 128 128   0 128
128   0 128 128   0 128 128   0 128 128   0 128 128   0 128 128   0 128 128 128 128  64
128 128  64 128 128  64 128 128  64 128 128  64 128 128  64 128 128  64 128 128  64 128
128  64 128 128  64 128 128  64 128 128  64 128 128  64 128 128  64 128 128  64 128 128
 64 128 128  64 128 128  64 128 128  64 128 128  64 128 128  64
128 128 128 128 128 128 128 128 128 128 128 128 128 128 128 128 128 128 128 128 128 128
128 128 128 128 128 128 128 128 128 128 128 128 128 128 128 128 128 128 128 128 128 128
128 128 128 128 128 128 128 128 128 128 128 128 128 128 128 128 128 128 128   0 128 128
  0 128 128   0 128 128   0 128 128   0 128 128   0 128 128   0 128 128   0 128 128   0
128 128   0 128 128   0 128 128   0 128 128   0 128 128   0 128 128   0 128 128   0 128
128   0 128 128   0 128 128   0 128 128   0 128 128   0 128 128   0 128 128 128 128  64
128 128  64 128 128  64 128 128  64 128 128  64 128 128  64 128 128  64 128 128  64 128
128  64 128 128  64 128 128  64 128 128  64 128 128  64 128 128  64 128 128  64 128 128
 64 128 128  64 128 128  64 128 128  64 128 128  64 128 128  64
128 128 128 128 128 128 128 128 128 128 128 128 128 128 128 128 128 128 128 128 128 128
128 128 128 128 128 128 128 128 128 128 128 128 128 128 128 128 128 128 128 128 128 128
128 128 128 128 128 128 128 128 128 128 128 128 128 128 128 128 128 128 128   0 128 128
  0 128 128   0 128 128   0 128 128   0 128 128   0 128 128   0 128 128   0 128 128   0
128 128   0 128 128   0 128 128   0 128 128   0 128 128   0 128 128   0 128 128   0 128
128   0 128 128   0 128 128   0 128 128   0 128 128   0 128 128   0 128 128 128 128  64
128 128  64 128 128  64 128 128  64 128 128  64 128 128  64 128 128  64 128 128  64 128
128  64 128 128  64 128 128  64 128 128  64 128 128  64 128 128  64 128 128  64 128 128
 64 128 128  64 128 128  64 128 128  64 128 128  64 128 128  64
128 128 128 128 128 128 128 128 128 128 128 128 128 128 128 128 128 128 128 128 128 128
128 128 128 128 128 128 128 128 128 128 128 128 128 128 128 128 128 128 128 128 128 128
128 128 128 128 128 128 128 128 128 128 128 128 128 128 128 128 128 128 128   0 128 128
  0 128 128   0 128 128   0 128 128   0 128 128   0 128 128   0 128 128   0 128 128   0
128 128   0 128 128   0 128 128   0 128 128   0 128 128   0 128 128   0 128 128   0 128
128   0 128 128   0 128 128   0 128 128   0 128 128   0 128 128   0 128 128 128 128  64
128 128  64 128 128  64 128 128  64 128 128  64 128 128  64 128 128  64 128 128  64 128
128  64 128 128  64 128 128  64 128 128  64 128 128  64 128 128  64 128 128  64 128 128
 64 128 128  64 128 128  64 128 128  64 128 128  64 128 128  64
128 128 128 128 128 128 128 128 128 128 128 128 128 128 128 128 128 128 128 128 128 128
128 128 128 128 128 128 128 128 128 128 128 128 128 128 128 128 128 128 128 128 128 128
128 128 128 128 128 128 128 128 128 128 128 128 128 128 128 128 128 128 128   0 128 128
  0 128 128   0 128 128   0 128 128   0 128 128   0 128 128   0 128 128   0 128 128   0
128 128   0 128 128   0 128 128   0 128 128   0 128 128   0 128 128   0 128 128   0 128
128   0 128 128   0 128 128   0 128 128   0 128 128   0 128 128   0 128 128 128 128  64
128 128  64 128 128  64 128 128  64 128 128  64 128 128  64 128 128  64 128 128  64 128
128  64 128 128  64 128 128  64 128 128  64 128 128  64 128 128  64 128 128  64 128 128
 64 128 128  64 128 128  64 128 128  64 128 128  64 128 128  64
128 128 128 128 128 128 128 128 128 128 128 128 128 128 128 128 128 128 128 128 128 128
128 128 128 128 128 128 128 128 128 128 128 128 128 128 128 128 128 128 128 128 128 128
128 128 128 128 128 128 128 128 128 128 128 128 128 128 128 128 128 128 128   0 128 128
  0 128 128   0 128 128   0 128 128   0 128 128   0 128 128   0 128 128   0 128 128   0
128 128   0 128 128   0 128 128   0 128 128   0 128 128   0 128 128   0 128 128   0 128
128   0 128 128   0 128 128   0 128 128   0 128 128   0 128 128   0 128 128 128 128  64
128 128  64 128 128  64 128 128  64 128 128  64 128 128  64 128 128  64 128 128  64 128
128  64 128 128  64 128 128  64 128 128  64 128 128  64 128 128  64 128 128  64 128 128
 64 128 128  64 128 128  64 128 128  64 128 128  64 128 128  64
128 128 128 128 128 128 128 128 128 128 128 128 128 128 128 128 128 128 128 128 128 128
128 128 128 128 128 128 128 128 128 128 128 255 255 255 128 128 128 128 128 128 128 128
128 255 255 255 128 128 128 128 128 128 128 128 128 128 128 128 128 128 128   0 128 128
  0 128 128   0 128 128   0 128 128   0 128 128   0 128 128   0 128 128   0 128 128   0
128 128   0 128 128   0 128 128   0 128 128 255 255 255   0 128 128   0 128 128   0 128
128 255 255 255   0 128 128   0 128 128   0 128 128   0 128 128   0 128 128 128 128  64
128 128  64 128 128  64 128 128  64 128 128  64 128 128  64 128 128  64 128 128  64 128
128  64 128 128  64 128 128  64 255 255 255 255 255 255 255 255 255 255 255 255 255 255
255 128 128  64 128 128  64 128 128  64 128 128  64 128 128  64
128 128 128 128 128 128 128 128 128 128 128 128 128 128 128 128 128 128 128 128 128 128
128 128 128 128 128 128 128 128 128 128 128 255 255 255 128 128 128 128 128 128 128 128
128 255 255 255 128 128 128 128 128 128 128 128 128 128 128 128 128 128 128   0 128 128
  0 128 128   0 128 128   0 128 128   0 128 128   0 128 128   0 128 128   0 128 128   0
128 128   0 128 128   0 128 128   0 128 128 255 255 255   0 128 128   0 128 128   0 128
128 255 255 255   0 128 128   0 128 128   0 128 128   0 128 128   0 128 128 128 128  64
128 128  64 128 128  64 128 128  64 128 128  64 128 128  64 128 128  64 128 128  64 128
128  64 128 128  64 128 128  64 128 128  64 128 128  64 128 128  64 128 128  64 255 255
255 128 128  64 128 128  64 128 128  64 128 128  64 128 128  64
128 128 128 128 128 128 128 128 128 128 128 128 128 128 128 128 128 128 128 128 128 128
128 128 128 128 128 128 128 128 128 128 128 255 255 255 128 128 128 128 128 128 128 128
128 255 255 255 128 128 128 128 128 128 128 128 128 128 128 128 128 128 128   0 128 128
  0 128 128   0 128 128   0 128 128   0 128 128   0 128 128   0 128 128   0 128 128   0
128 128   0 128 128   0 128 128   0 128 128 255 255 255   0 128 128   0 128 128   0 128
128 255 255 255   0 128 128   0 128 128   0 128 128   0 128 128   0 128 128 128 128  64
128 128  64 128 128  64 128 128  64 128 128  64 128 128  64 128 128  64 128 128  64 128
128  64 128 128  64 128 128  64 128 128  64 128 128  64 128 128  64 255 255 255 128 128
 64 128 128  64 128 128  64 128 128  64 128 128  64 128 128  64
128 128 128 128 128 128 128 128 128 128 128 128 128 128 128 128 128 128 128 128 128 128
128 128 128 128 128 128 128 128 128 128 128 128 128 128 255 255 255 128 128 128 255 255
255 128 128 128 128 128 128 128 128 128 128 128 128 128 128 128 128 128 128   0 128 128
  0 128 128   0 128 128   0 128 128   0 128 128   0 128 128   0 128 128   0 128 128   0
128 128   0 128 128   0 128 128   0 128 128 255 255 255   0 128 128   0 128 128   0 128
128 255 255 255   0 128 128   0 128 128   0 128 128   0 128 128   0 128 128 128 128  64
128 128  64 128 128  64 128 128  64 128 128  64 128 128  64 128 128  64 128 128  64 128
128  64 128 128  64 128 128  64 128 128  64 128 128  64 128 128  64 255 255 255 128 128
 64 128 128  64 128 128  64 128 128  64 128 128  64 128 128  64
128 128 128 128 128 128 128 128 128 128 128 128 255 255 255 255 255 255 255 255 255 255
255 255 255 255 255 128 128 128 128 128 128 128 128 128 128 128 128 255 255 255 128 128
128 128 128 128 128 128 128 128 128 128 128 128 128 128 128 128 128 128 128   0 128 128
  0 128 128   0 128 128   0 128 128   0 128 128 255 255 255 255 255 255 255 255 255 255
255 255 255 255 255   0 128 128   0 128 128   0 128 128 255 255 255   0 128 128 255 255
255   0 128 128   0 128 128   0 128 128   0 128 128   0 128 128   0 128 128 128 128  64
128 128  64 128 128  64 128 128  64 255 255 255 255 255 255 255 255 255 255 255 255 255
255 255 128 128  64 128 128  64 128 128  64 128 128  64 255 255 255 128 128  64 128 128
 64 128 128  64 128 128  64 128 128  64 128 128  64 128 128  64
128 128 128 128 128 128 128 128 128 128 128 128 128 128 128 128 128 128 128 128 128 128
128 128 128 128 128 128 128 128 128 128 128 128 128 128 255 255 255 128 128 128 255 255
255 128 128 128 128 128 128 128 128 128 128 128 128 128 128 128 128 128 128   0 128 128
  0 128 128   0 128 128   0 128 128   0 128 128   0 128 128   0 128 128   0 128 128   0
128 128   0 128 128   0 128 128   0 128 128   0 128 128   0 128 128 255 255 255   0 128
128   0 128 128   0 128 128   0 128 128   0 128 128   0 128 128   0 128 128 128 128  64
128 128  64 128 128  64 128 128  64 128 128  64 128 128  64 128 128  64 128 128  64 128
128  64 128 128  64 128 128  64 128 128  64 255 255 255 128 128  64 128 128  64 128 128
 64 128 128  64 128 128  64 128 128  64 128 128  64 128 128  64
128 128 128 128 128 128 128 128 128 128 128 128 128 128 128 128 128 128 128 128 128 128
128 128 128 128 128 128 128 128 128 128 128 255 255 255 128 128 128 128 128 128 128 128
128 255 255 255 128 128 128 128 128 128 128 128 128 128 128 128 128 128 128   0 128 128
  0 128 128   0 128 128   0 128 128   0 128 128   0 128 128   0 128 128   0 128 128   0
128 128   0 128 128   0 128 128   0 128 128   0 128 128   0 128 128 255 255 255   0 128
128   0 128 128   0 128 128   0 128 128   0 128 128   0 128 128   0 128 128 128 128  64
128 128  64 128 128  64 128 128  64 128 128  64 128 128  64 128 128  64 128 128  64 128
128  64 128 128  64 128 128  64 128 128  64 255 255 255 128 128  64 128 128  64 128 128
 64 128 128  64 128 128  64 128 128  64 128 128  64 128 128  64
128 128 128 128 128 128 128 128 128 128 128 128 128 128 128 128 128 128 128 128 128 128
128 128 128 128 128 128 128 128 128 128 128 255 255 255 128 128 128 128 128 128 128 128
128 255 255 255 128 128 128 128 128 128 128 128 128 128 128 128 128 128 128   0 128 128
  0 128 128   0 128 128   0 128 128   0 128 128   0 128 128   0 128 128   0 128 128   0
128 128   0 128 128   0 128 128   0 128 128   0 128 128   0 128 128 255 255 255   0 128
128   0 128 128   0 128 128   0 128 128   0 128 128   0 128 128   0 128 128 128 128  64
128 128  64 128 128  64 128 128  64 128 128  64 128 128  64 128 128  64 128 128  64 128
128  64 128 128  64 128 128  64 255 255 255 128 128  64 128 128  64 128 128  64 128 128
 64 128 128  64 128 128  64 128 128  64 128 128  64 128 128  64
128 128 128 128 128 128 128 128 128 128 128 128 128 128 128 128 128 128 128 128 128 128
128 128 128 128 128 128 128 128 128 128 128 255 255 255 128 128 128 128 128 128 128 128
128 255 255 255 128 128 128 128 128 128 128 128 128 128 128 128 128 128 128   0 128 128
  0 128 128   0 128 128   0 128 128   0 128 128   0 128 128   0 128 128   0 128 128   0
128 128   0 128 128   0 128 128   0 128 128   0 128 128   0 128 128 255 255 255   0 128
128   0 128 128   0 128 128   0 128 128   0 128 128   0 128 128   0 128 128 128 128  64
128 128  64 128 128  64 128 128  64 128 128  64 128 128  64 128 128  64 128 128  64 128
128  64 128 128  64 128 128  64 255 255 255 255 255 255 255 255 255 255 255 255 255 255
255 128 128  64 128 128  64 128 128  64 128 128  64 128 128  64
128 128 128 128 128 128 128 128 128 128 128 128 128 128 128 128 128 128 128 128 128 128
128 128 128 128 128 128 128 128 128 128 128 128 128 128 128 128 128 128 128 128 128 128
128 128 128 128 128 128 128 128 128 128 128 128 128 128 128 128 128 128 128   0 128 128
  0 128 128   0 128 128   0 128 128   0 128 128   0 128 128   0 128 128   0 128 128   0
128 128   0 128 128   0 128 128   0 128 128   0 128 128   0 128 128   0 128 128   0 128
128   0 128 128   0 128 128   0 128 128   0 128 128   0 128 128   0 128 128 128 128  64
128 128  64 128 128  64 128 128  64 128 128  64 128 128  64 128 128  64 128 128  64 128
128  64 128 128  64 128 128  64 128 128  64 128 128  64 128 128  64 128 128  64 128 128
 64 128 128  64 128 128  64 128 128  64 128 128  64 128 128  64
128 128 128 128 128 128 128 128 128 128 128 128 128 128 128 128 128 128 128 128 128 128
128 128 128 128 128 128 128 128 128 128 128 128 128 128 128 128 128 128 128 128 128 128
128 128 128 128 128 128 128 128 128 128 128 128 128 128 128 128 128 128 128   0 128 128
  0 128 128   0 128 128   0 128 128   0 128 128   0 128 128   0 128 128   0 128 128   0
128 128   0 128 128   0 128 128   0 128 128   0 128 128   0 128 128   0 128 128   0 128
128   0 128 128   0 128 128   0 128 128   0 128 128   0 128 128   0 128 128 128 128  64
128 128  64 128 128  64 128 128  64 128 128  64 128 128  64 128 128  64 128 128  64 128
128  64 128 128  64 128 128  64 128 128  64 128 128  64 128 128  64 128 128  64 128 128
 64 128 128  64 128 128  64 128 128  64 128 128  64 128 128  64
128 128 128 128 128 128 128 128 128 128 128 128 128 128 128 128 128 128 128 128 128 128
128 128 128 128 128 128 128 128 128 128 128 128 128 128 128 128 128 128 128 128 128 128
128 128 128 128 128 128 128 128 128 128 128 128 128 128 128 128 128 128 128   0 128 128
  0 128 128   0 128 128   0 128 128   0 128 128   0 128 128   0 128 128   0 128 128   0
128 128   0 128 128   0 128 128   0 128 128   0 128 128   0 128 128   0 128 128   0 128
128   0 128 128   0 128 128   0 128 128   0 128 128   0 128 128   0 128 128 128 128  64
128 128  64 128 128  64 128 128  64 128 128  64 128 128  64 128 128  64 128 128  64 128
128  64 128 128  64 128 128  64 128 128  64 128 128  64 128 128  64 128 128  64 128 128
 64 128 128  64 128 128  64 128 128  64 128 128  64 128 128  64
128 128 128 128 128 128 128 128 128 128 128 128 128 128 128 128 128 128 128 128 128 128
128 128 128 128 128 128 128 128 128 128 128 128 128 128 128 128 128 128 128 128 128 128
128 128 128 128 128 128 128 128 128 128 128 128 128 128 128 128 128 128 128   0 128 128
  0 128 128   0 128 128   0 128 128   0 128 128   0 128 128   0 128 128   0 128 128   0
128 128   0 128 128   0 128 128   0 128 128   0 128 128   0 128 128   0 128 128   0 128
128   0 128 128   0 128 128   0 128 128   0 128 128   0 128 128   0 128 128 128 128  64
128 128  64 128 128  64 128 128  64 128 128  64 128 128  64 128 128  64 128 128  64 128
128  64 128 128  64 128 128  64 128 128  64 128 128  64 128 128  64 128 128  64 128 128
 64 128 128  64 128 128  64 128 128  64 128 128  64 128 128  64
128 128 128 128 128 128 255 255 255 255 255 255 255 255 255 128 128 128 128 128 128 128
128 128 128 128 128 128 128 128 128 128 128 128 128 128 128 128 128 128 128 128 128 128
128 128 128 128 128 128 128 128 128 128 128 128 128 128 128 128 128 128 128   0 128 128
  0 128 128 255 255 255 255 255 255 255 255 255   0 128 128   0 128 128   0 128 128   0
128 128   0 128 128   0 128 128   0 128 128   0 128 128   0 128 128   0 128 128   0 128
128   0 128 128   0 128 128   0 128 128   0 128 128   0 128 128   0 128 128 128 128  64
128 128  64 255 255 255 255 255 255 255 255 255 128 128  64 128 128  64 128 128  64 128
128  64 128 128  64 128 128  64 128 128  64 128 128  64 128 128  64 128 128  64 128 128
 64 128 128  64 128 128  64 128 128  64 128 128  64 128 128  64
128 128 128 128 128 128 255 255 255 128 128 128 128 128 128 255 255 255 128 128 128 128
128 128 128 128 128 128 128 128 128 128 128 128 128 128 128 128 128 128 128 128 128 128
128 128 128 128 128 128 128 128 128 128 128 128 128 128 128 128 128 128 128   0 128 128
  0 128 128 255 255 255   0 128 128   0 128 128 255 255 255   0 128 128   0 128 128   0
128 128   0 128 128   0 128 128   0 128 128   0 128 128   0 128 128   0 128 128   0 128
128   0 128 128   0 128 128   0 128 128   0 128 128   0 128 128   0 128 128 128 128  64
128 128  64 255 255 255 128 128  64 128 128  64 255 255 255 128 128  64 128 128  64 128
128  64 128 128  64 128 128  64 128 128  64 128 128  64 128 128  64 128 128  64 128 128
 64 128 128  64 128 128  64 128 128  64 128 128  64 128 128  64
128 128 128 128 128 128 255 255 255 255 255 255 255 255 255 128 128 128 128 128 128 128
128 128 128 128 128 128 128 128 128 128 128 128 128 128 128 128 128 128 128 128 128 128
128 128 128 128 128 128 128 128 128 128 128 128 128 128 128 128 128 128 128   0 128 128
  0 128 128 255 255 255 255 255 255 255 255 255   0 128 128   0 128 128   0 128 128   0
128 128   0 128 128   0 128 128   0 128 128   0 128 128   0 128 128   0 128 128   0 128
128   0 128 128   0 128 128   0 128 128   0 128 128   0 128 128   0 128 128 128 128  64
128 128  64 255 255 255 255 255 255 255 255 255 128 128  64 128 128  64 128 128  64 128
128  64 128 128  64 128 128  64 128 128  64 128 128  64 128 128  64 128 128  64 128 128
 64 128 128  64 128 128  64 128 128  64 128 128  64 128 128  64
128 128 128 128 128 128 255 255 255 128 128 128 128 128 128 255 255 255 128 128 128 128
128 128 128 128 128 128 128 128 128 128 128 128 128 128 128 128 128 128 128 128 128 128
128 128 128 128 128 128 128 128 128 128 128 128 128 128 128 128 128 128 128   0 128 128
  0 128 128 255 255 255   0 128 128   0 128 128 255 255 255   0 128 128   0 128 128   0
128 128   0 128 128   0 128 128   0 128 128   0 128 128   0 128 128   0 128 128   0 128
128   0 128 128   0 128 128   0 128 128   0 128 128   0 128 128   0 128 128 128 128  64
128 128  64 255 255 255 128 128  64 128 128  64 255 255 255 128 128  64 128 128  64 128
128  64 128 128  64 128 128  64 128 128  64 128 128  64 128 128  64 128 128  64 128 128
 64 128 128  64 128 128  64 128 128  64 128 128  64 128 128  64
128 128 128 128 128 128 255 255 255 128 128 128 128 128 128 255 255 255 128 128 128 128
128 128 128 128 128 128 128 128 128 128 128 128 128 128 128 128 128 128 128 128 128 128
128 128 128 128 128 128 128 128 128 128 128 128 128 128 128 128 128 128 128   0 128 128
  0 128 128 255 255 255   0 128 128   0 128 128 255 255 255   0 128 128   0 128 128   0
128 128   0 128 128   0 128 128   0 128 128   0 128 128   0 128 128   0 128 128   0 128
128   0 128 128   0 128 128   0 128 128   0 128 128   0 128 128   0 128 128 128 128  64
128 128  64 255 255 255 128 128  64 128 128  64 255 255 255 128 128  64 128 128  64 128
128  64 128 128  64 128 128  64 128 128  64 128 128  64 128 128  64 128 128  64 128 128
 64 128 128  64 128 128  64 128 128  64 128 128  64 128 128  64
128 128 128 128 128 128 128 128 128 128 128 128 128 128 128 128 128 128 128 128 128 128
128 128 128 128 128 128 128 128 128 128 128 128 128 128 128 128 128 128 128 128 128 128
128 128 128 128 128 128 128 128 128 128 128 128 128 128 128 128 128 128 128   0 128 128
  0 128 128   0 128 128   0 128 128   0 128 128   0 128 128   0 128 128   0 128 128   0
128 128   0 128 128   0 128 128   0 128 128   0 128 128   0 128 128   0 128 128   0 128
128   0 128 128   0 128 128   0 128 128   0 128 128   0 128 128   0 128 128 128 128  64
128 128  64 128 128  64 128 128  64 128 128  64 128 128  64 128 128  64 128 128  64 128
128  64 128 128  64 128 128  64 128 128  64 128 128  64 128 128  64 128 128  64 128 128
 64 128 128  64 128 128  64 128 128  64 128 128  64 128 128  64
128 128 128 128 128 128 128 128 128 128 128 128 128 128 128 128 128 128 128 128 128 128
128 128 128 128 128 128 128 128 128 128 128 128 128 128 128 128 128 128 128 128 128 128
128 128 128 128 128 128 128 128 128 128 128 128 128 128 128 128 128 128 128   0 128 128
  0 128 128   0 128 128   0 128 128   0 128 128   0 128 128   0 128 128   0 128 128   0
128 128   0 128 128   0 128 128   0 128 128   0 128 128   0 128 128   0 128 128   0 128
128   0 128 128   0 128 128   0 128 128   0 128 128   0 128 128   0 128 128 128 128  64
128 128  64 128 128  64 128 128  64 128 128  64 128 128  64 128 128  64 128 128  64 128
128  64 128 128  64 128 128  64 128 128  64 128 128  64 128 128  64 128 128  64 128 128
 64 128 128  64 128 128  64 128 128  64 128 128  64 128 128  64
