P3
64 64
255
  0   0   0   0   0   0   0   0   0   0   0   0   0   0   0   0   0   0   0   0   0   0
  0   0   0   0   0   0   0   0   0   0   0   0   0   0   0   0   0   0   0   0   1   1
  1   2   2   2   2   2   2   3   3   3   4   4   4   4   4   4   5   5   5   6   6   6
  6   6   6   6   6   6   7   7   7   7   7   7   8   8   8   8   8   8   8   8   8   8
  8   8   8   8   8   8   8   8   8   8   8   8   8   8   8   8   8   8   8   8   7   7
  7   7   7   7   7   7   7   6   6   6   6   6   6   5   5   5   4   4   4   4   4   4
  4   4   4   3   3   3   2   2   2   1   1   1   0   0   0   0   0   0   0   0   0   0
  0   0   0   0   0   0   0   0   0   0   0   0   0   0   0   0   0   0   0   0   0   0
  0   0   0   0   0   0   0   0   0   0   0   0   0   0   0   0
  0   0   0   0   0   0   0   0   0   0   0   0   0   0   0   0   0   0   0   0   0   0
  0   0   0   0   0   0   0   0   0   0   0   0   0   0   0   0   0   1   1   1   2   2
  2   3   3   3   4   4   4   4   4   4   5   5   5   6   6   6   6   6   6   7   7   7
  7   7   7   8   8   8   9   9   9   9   9   9   9   9   9   9   9   9   9   9   9  10
 10  10   9   9   9  10  10  10  10  10  10   9   9   9   9   9   9   9   9   9   9   9
  9   9   9   9   9   9   9   8   8   8   8   8   8   7   7   7   7   7   7   6   6   6
  5   5   5   4   4   4   4   4   4   3   3   3   2   2   2   1   1   1   0   0   0   0
  0   0   0   0   0   0   0   0   0   0   0   0   0   0   0   0   0   0   0   0   0   0
  0   0   0   0   0   0   0   0   0   0   0   0   0   0   0   0
  0   0   0   0   0   0   0   0   0   0   0   0   0   0   0   0   0   0   0   0   0   0
  0   0   0   0   0   0   0   0   0   0   0   1   1   1   2   2   2   3   3   3   3   3
  3   4   4   4   6   6   6   6   6   6   7   7   7   8   8   8   8   8   8   9   9   9
  9   9   9  10  10  10  10  10  10  10  10  10  10  10  10  11  11  11  11  11  11  11
 11  11  12  12  12  11  11  11  11  11  11  11  11  11  11  11  11  11  11  11  10  10
 10  10  10  10  10  10  10   9   9   9   9   9   9   9   9   9   8   8   8   8   8   8
  6   6   6   6   6   6   5   5   5   4   4   4   4   4   4   2   2   2   1   1   1   1
  1   1   0   0   0   0   0   0   0   0   0   0   0   0   0   0   0   0   0   0   0   0
  0   0   0   0   0   0   0   0   0   0   0   0   0   0   0   0
  0   0   0   0   0   0   0   0   0   0   0   0   0   0   0   0   0   0   0   0   0   0
  0   0   0   0   0   0   0   0   1   1   1   2   2   2   3   3   3   5   5   5   5   5
  5   6   6   6   7   7   7   8   8   8   8   8   8   9   9   9   9   9   9  10  10  10
 10  10  10  11  11  11  11  11  11  12  12  12  12  12  12  12  12  12  13  13  13  13
 13  13  13  13  13  13  13  13  13  13  13  13  13  13  13  13  13  12  12  12  12  12
 12  12  12  12  11  11  11  12  12  12  10  10  10  10  10  10   9   9   9   9   9   9
  8   8   8   7   7   7   7   7   7   6   6   6   5   5   5   4   4   4   3   3   3   2
  2   2   0   0   0   0   0   0   0   0   0   0   0   0   0   0   0   0   0   0   0   0
  0   0   0   0   0   0   0   0   0   0   0   0   0   0   0   0
  0   0   0   0   0   0   0   0   0   0   0   0   0   0   0   0   0   0   0   0   0   0
  0   0   1   1   1   2   2   2   3   3   3   3   3   3   5   5   5   6   6   6   6   6
  6   7   7   7   8   8   8   9   9   9  10  10  10  10  10  10  11  11  11  11  11  11
 13  13  13  12  12  12  13  13  13  14  14  14  14  14  14  14  14  14  14  14  14  14
 14  14  14  14  14  14  14  14  14  14  14  14  14  14  14  14  14  14  14  14  13  13
 13  13  13  13  13  13  13  12  12  12  12  12  12  12  12  12  11  11  11  10  10  10
 10  10  10   9   9   9   9   9   9   8   8   8   6   6   6   6   6   6   5   5   5   4
  4   4   2   2   2   1   1   1   0   0   0   0   0   0   0   0   0   0   0   0   0   0
  0   0   0   0   0   0   0   0   0   0   0   0   0   0   0   0
  0   0   0   0   0   0   0   0   0   0   0   0   0   0   0   0   0   0   0   0   0   0
  0   0   2   2   2   2   2   2   4   4   4   5   5   5   6   6   6   7   7   7   8   8
  8   9   9   9  10  10  10  11  11  11  11  11  11  11  11  11  13  13  13  13  13  13
 13  13  13  14  14  14  14  14  14  15  15  15  15  15  15  16  16  16  17  17  17  17
 17  17  19  19  19  18  18  18  18  18  18  18  18  18  18  18  18  17  17  17  17  17
 17  15  15  15  14  14  14  13  13  13  13  13  13  13  13  13  12  12  12  12  12  12
 11  11  11  10  10  10  10  10  10   9   9   9   8   8   8   7   7   7   5   5   5   5
  5   5   3   3   3   3   3   3   1   1   1   0   0   0   0   0   0   0   0   0   0   0
  0   0   0   0   0   0   0   0   0   0   0   0   0   0   0   0
  0   0   0   0   0   0   0   0   0   0   0   0   0   0   0   0   0   0   1   1   1   2
  2   2   3   3   3   4   4   4   6   6   6   6   6   6   8   8   8   9   9   9  10  10
 10  11  11  11  12  12  12  11  11  11  13  13  13  13  13  13  14  14  14  14  14  14
 15  15  15  16  16  16  18  18  18  20  20  20  21  21  21  22  22  22  23  23  23  23
 23  23  24  24  24  24  24  24  24  24  24  24  24  24  24  24  24  23  23  23  22  22
 22  21  21  21  19  19  19  18  18  18  16  16  16  14  14  14  14  14  14  13  13  13
 13  13  13  12  12  12  11  11  11  10  10  10   9   9   9   8   8   8   7   7   7   7
  7   7   5   5   5   4   4   4   3   3   3   1   1   1   0   0   0   0   0   0   0   0
  0   0   0   0   0   0   0   0   0   0   0   0   0   0   0   0
  0   0   0   0   0   0   0   0   0   0   0   0   0   0   0   0   0   0   2   2   2   3
  3   3   4   4   4   6   6   6   7   7   7   8   8   8   9   9   9  10  10  10  11  11
 11  12  12  12  12  12  12  13  13  13  14  14  14  14  14  14  15  15  15  17  17  17
 19  19  19  21  21  21  23  23  23  25  25  25  26  26  26  27  27  27  29  29  29  28
 28  28  30  30  30  30  30  30  31  31  31  29  29  29  29  29  29  28  28  28  27  27
 27  26  26  26  26  26  26  24  24  24  21  21  21  20  20  20  17  17  17  14  14  14
 14  14  14  13  13  13  12  12  12  11  11  11  10  10  10   9   9   9   9   9   9   8
  8   8   6   6   6   5   5   5   4   4   4   3   3   3   1   1   1   0   0   0   0   0
  0   0   0   0   0   0   0   0   0   0   0   0   0   0   0   0
  0   0   0   0   0   0   0   0   0   0   0   0   0   0   0   1   1   1   3   3   3   5
  5   5   6   6   6   7   7   7   7   7   7   9   9   9  10  10  10  11  11  11  12  12
 12  13  13  13  14  14  14  14  14  14  15  15  15  17  17  17  20  20  20  22  22  22
 25  25  25  28  28  28  28  28  28  31  31  31  31  31  31  33  33  33  34  34  34  34
 34  34  35  35  35  35  35  35  35  35  35  35  35  35  35  35  35  34  34  34  33  33
 33  32  32  32  31  31  31  29  29  29  27  27  27  25  25  25  23  23  23  20  20  20
 17  17  17  14  14  14  14  14  14  13  13  13  12  12  12  11  11  11  10  10  10   9
  9   9   7   7   7   7   7   7   5   5   5   4   4   4   3   3   3   2   2   2   0   0
  0   0   0   0   0   0   0   0   0   0   0   0   0   0   0   0
  0   0   0   0   0   0   0   0   0   0   0   0   2   2   2   3   3   3   5   5   5   5
  5   5   7   7   7   8   8   8   9   9   9  10  10  10  12  12  12  12  12  12  13  13
 13  14  14  14  15  15  15  15  15  15  19  19  19  22  22  22  25  25  25  27  27  27
 30  30  30  32  32  32  34  34  34  35  35  35  37  37  37  39  39  39  39  39  39  39
 39  39  40  40  40  41  41  41  40  40  40  40  40  40  39  39  39  38  38  38  38  38
 38  37  37  37  36  36  36  34  34  34  31  31  31  30  30  30  28  28  28  25  25  25
 22  22  22  19  19  19  15  15  15  13  13  13  13  13  13  12  12  12  11  11  11  10
 10  10   9   9   9   7   7   7   6   6   6   5   5   5   4   4   4   2   2   2   2   2
  2   0   0   0   0   0   0   0   0   0   0   0   0   0   0   0
  0   0   0   0   0   0   0   0   0   1   1   1   3   3   3   4   4   4   5   5   5   6
  6   6   8   8   8   9   9   9  11  11  11  12  12  12  12  12  12  14  14  14  14  14
 14  15  15  15  17  17  17  21  21  21  24  24  24  26  26  26  30  30  30  33  33  33
 34  34  34  37  37  37  38  38  38  39  39  39  41  41  41  42  42  42  43  43  43  44
 44  44  45  45  45  44  44  44  46  46  46  46  46  46  45  45  45  44  44  44  42  42
 42  42  42  42  41  41  41  39  39  39  37  37  37  34  34  34  33  33  33  29  29  29
 28  28  28  25  25  25  20  20  20  18  18  18  14  14  14  14  14  14  12  12  12  11
 11  11  10  10  10   9   9   9   8   8   8   6   6   6   5   5   5   4   4   4   2   2
  2   1   1   1   0   0   0   0   0   0   0   0   0   0   0   0
  0   0   0   0   0   0   1   1   1   2   2   2   4   4   4   5   5   5   6   6   6   7
  7   7   9   9   9  10  10  10  11  11  11  12  12  12  13  13  13  14  14  14  16  16
 16  17  17  17  21  21  21  26  26  26  28  28  28  31  31  31  34  34  34  36  36  36
 39  39  39  41  41  41  42  42  42  44  44  44  46  46  46  47  47  47  48  48  48  49
 49  49  50  50  50  49  49  49  49  49  49  48  48  48  49  49  49  48  48  48  46  46
 46  46  46  46  45  45  45  43  43  43  41  41  41  39  39  39  37  37  37  35  35  35
 31  31  31  29  29  29  26  26  26  22  22  22  18  18  18  15  15  15  13  13  13  12
 12  12  11  11  11  10  10  10   8   8   8   7   7   7   6   6   6   5   5   5   3   3
  3   1   1   1   0   0   0   0   0   0   0   0   0   0   0   0
  0   0   0   0   0   0   2   2   2   3   3   3   5   5   5   6   6   6   7   7   7   8
  8   8  10  10  10  11  11  11  13  13  13  13  13  13  14  14  14  16  16  16  18  18
 18  22  22  22  26  26  26  30  30  30  32  32  32  35  35  35  39  39  39  41  41  41
 44  44  44  45  45  45  47  47  47  48  48  48  50  50  50  51  51  51  52  52  52  53
 53  53  54  54  54  54  54  54  53  53  53  53  53  53  52  52  52  52  52  52  52  52
 52  50  50  50  50  50  50  47  47  47  45  45  45  43  43  43  41  41  41  39  39  39
 36  36  36  33  33  33  30  30  30  25  25  25  22  22  22  19  19  19  14  14  14  13
 13  13  12  12  12  11  11  11  10  10  10   8   8   8   7   7   7   5   5   5   4   4
  4   3   3   3   2   2   2   0   0   0   0   0   0   0   0   0
  0   0   0   1   1   1   3   3   3   4   4   4   6   6   6   7   7   7   8   8   8  10
 10  10  11  11  11  12  12  12  14  14  14  14  14  14  15  15  15  17  17  17  22  22
 22  27  27  27  30  30  30  33  33  33  37  37  37  39  39  39  42  42  42  44  44  44
 47  47  47  49  49  49  50  50  50  52  52  52  54  54  54  55  55  55  55  55  55  56
 56  56  57  57  57  57  57  57  56  56  56  56  56  56  57  57  57  56  56  56  56  56
 56  54  54  54  53  53  53  51  51  51  50  50  50  47  47  47  45  45  45  43  43  43
 40  40  40  37  37  37  35  35  35  31  31  31  27  27  27  23  23  23  18  18  18  14
 14  14  13  13  13  12  12  12  10  10  10   9   9   9   8   8   8   6   6   6   5   5
  5   4   4   4   2   2   2   0   0   0   0   0   0   0   0   0
  0   0   0   2   2   2   3   3   3   5   5   5   6   6   6   8   8   8   9   9   9  10
 10  10  12  12  12  13  13  13  15  15  15  15  15  15  17  17  17  22  22  22  26  26
 26  30  30  30  34  34  34  38  38  38  41  41  41  44  44  44  46  46  46  48  48  48
 51  51  51  53  53  53  55  55  55  56  56  56  57  57  57  59  59  59  61  61  61  61
 61  61  64  64  64  64  64  64  63  63  63  63  63  63  61  61  61  59  59  59  58  58
 58  58  58  58  56  56  56  55  55  55  52  52  52  52  52  52  49  49  49  47  47  47
 44  44  44  41  41  41  37  37  37  35  35  35  31  31  31  27  27  27  23  23  23  18
 18  18  14  14  14  13  13  13  12  12  12  10  10  10   9   9   9   8   8   8   6   6
  6   5   5   5   3   3   3   1   1   1   0   0   0   0   0   0
  1   1   1   3   3   3   5   5   5   6   6   6   8   8   8   9   9   9  10  10  10  11
 11  11  13  13  13  13  13  13  15  15  15  16  16  16  20  20  20  25  25  25  31  31
 31  34  34  34  38  38  38  40  40  40  44  44  44  47  47  47  49  49  49  51  51  51
 54  54  54  56  56  56  59  59  59  62  62  62  64  64  64  68  68  68  69  69  69  71
 71  71  72  72  72  73  73  73  72  72  72  72  72  72  71  71  71  69  69  69  67  67
 67  63  63  63  60  60  60  57  57  57  56  56  56  54  54  54  53  53  53  50  50  50
 47  47  47  44  44  44  42  42  42  37  37  37  34  34  34  31  31  31  26  26  26  21
 21  21  16  16  16  13  13  13  12  12  12  11  11  11   9   9   9   9   9   9   7   7
  7   6   6   6   4   4   4   2   2   2   1   1   1   0   0   0
  2   2   2   3   3   3   5   5   5   7   7   7   8   8   8   9   9   9  11  11  11  12
 12  12  13  13  13  15  15  15  15  15  15  19  19  19  25  25  25  29  29  29  34  34
 34  36  36  36  41  41  41  44  44  44  47  47  47  50  50  50  52  52  52  56  56  56
 58  58  58  62  62  62  66  66  66  70  70  70  72  72  72  75  75  75  78  78  78  80
 80  80  80  80  80  80  80  80  80  80  80  80  80  80  79  79  79  76  76  76  74  74
 74  72  72  72  69  69  69  66  66  66  61  61  61  58  58  58  56  56  56  54  54  54
 50  50  50  48  48  48  44  44  44  41  41  41  38  38  38  33  33  33  30  30  30  25
 25  25  21  21  21  15  15  15  13  13  13  12  12  12  10  10  10   9   9   9   8   8
  8   6   6   6   5   5   5   3   3   3   2   2   2   0   0   0
  2   2   2   5   5   5   6   6   6   7   7   7   9   9   9  10  10  10  12  12  12  13
 13  13  14  14  14  15  15  15  18  18  18  23  23  23  28  28  28  32  32  32  36  36
 36  40  40  40  44  44  44  47  47  47  50  50  50  52  52  52  55  55  55  59  59  59
 65  65  65  70  70  70  74  74  74  78  78  78  81  81  81  83  83  83  84  84  84  87
 87  87  87  87  87  87  87  87  87  87  87  87  87  87  86  86  86  84  84  84  83  83
 83  80  80  80  76  76  76  73  73  73  69  69  69  64  64  64  58  58  58  56  56  56
 53  53  53  51  51  51  49  49  49  44  44  44  40  40  40  37  37  37  33  33  33  29
 29  29  23  23  23  18  18  18  14  14  14  12  12  12  11  11  11  10  10  10   8   8
  8   8   8   8   5   5   5   4   4   4   2   2   2   0   0   0
  3   3   3   5   5   5   7   7   7   8   8   8  10  10  10  11  11  11  12  12  12  13
 13  13  15  15  15  16  16  16  21  21  21  26  26  26  31  31  31  36  36  36  39  39
 39  43  43  43  46  46  46  49  49  49  52  52  52  56  56  56  60  60  60  66  66  66
 73  73  73  76  76  76  80  80  80  84  84  84  86  86  86  89  89  89  91  91  91  92
 92  92  94  94  94  93  93  93  93  93  93  93  93  93  92  92  92  91  91  91  89  89
 89  86  86  86  82  82  82  79  79  79  76  76  76  71  71  71  66  66  66  59  59  59
 56  56  56  54  54  54  50  50  50  46  46  46  43  43  43  40  40  40  36  36  36  31
 31  31  26  26  26  22  22  22  16  16  16  13  13  13  12  12  12  10  10  10   9   9
  9   8   8   8   7   7   7   5   5   5   3   3   3   1   1   1
  4   4   4   5   5   5   8   8   8   9   9   9  11  11  11  12  12  12  13  13  13  14
 14  14  16  16  16  17  17  17  24  24  24  28  28  28  33  33  33  38  38  38  42  42
 42  45  45  45  49  49  49  53  53  53  55  55  55  62  62  62  66  66  66  73  73  73
 78  78  78  83  83  83  87  87  87  90  90  90  93  93  93  95  95  95  97  97  97  98
 98  98  99  99  99  99  99  99 100 100 100 100 100 100  98  98  98  96  96  96  94  94
 94  92  92  92  88  88  88  86  86  86  82  82  82  76  76  76  72  72  72  66  66  66
 59  59  59  55  55  55  52  52  52  49  49  49  46  46  46  42  42  42  38  38  38  33
 33  33  29  29  29  24  24  24  19  19  19  14  14  14  12  12  12  11  11  11  10  10
 10   8   8   8   6   6   6   5   5   5   4   4   4   2   2   2
  5   5   5   6   6   6   8   8   8  10  10  10  11  11  11  13  13  13  14  14  14  15
 15  15  16  16  16  21  21  21  26  26  26  31  31  31  36  36  36  41  41  41  44  44
 44  48  48  48  51  51  51  55  55  55  60  60  60  67  67  67  73  73  73  80  80  80
 84  84  84  89  89  89  92  92  92  96  96  96  99  99  99 103 103 103 105 105 105 107
107 107 108 108 108 109 109 109 109 109 109 107 107 107 106 106 106 103 103 103 100 100
100  96  96  96  94  94  94  90  90  90  87  87  87  82  82  82  78  78  78  73  73  73
 66  66  66  58  58  58  54  54  54  51  51  51  48  48  48  45  45  45  41  41  41  35
 35  35  31  31  31  27  27  27  22  22  22  16  16  16  13  13  13  12  12  12  11  11
 11   9   9   9   8   8   8   6   6   6   4   4   4   2   2   2
  6   6   6   6   6   6   9   9   9  10  10  10  11  11  11  13  13  13  15  15  15  16
 16  16  18  18  18  23  23  23  29  29  29  33  33  33  37  37  37  42  42  42  46  46
 46  50  50  50  54  54  54  59  59  59  66  66  66  73  73  73  79  79  79  84  84  84
 90  90  90  93  93  93  97  97  97 103 103 103 107 107 107 110 110 110 115 115 115 115
115 115 117 117 117 118 118 118 117 117 117 115 115 115 114 114 114 112 112 112 109 109
109 103 103 103  99  99  99  95  95  95  92  92  92  88  88  88  82  82  82  78  78  78
 72  72  72  64  64  64  57  57  57  54  54  54  51  51  51  46  46  46  43  43  43  39
 39  39  34  34  34  29  29  29  24  24  24  19  19  19  14  14  14  12  12  12  11  11
 11  10  10  10   8   8   8   6   6   6   4   4   4   3   3   3
  6   6   6   7   7   7   9   9   9  10  10  10  12  12  12  13  13  13  15  15  15  16
 16  16  20  20  20  26  26  26  29  29  29  35  35  35  41  41  41  45  45  45  47  47
 47  52  52  52  56  56  56  64  64  64  71  71  71  77  77  77  83  83  83  88  88  88
 93  93  93  99  99  99 106 106 106 110 110 110 114 114 114 119 119 119 122 122 122 124
124 124 128 128 128 130 130 130 130 130 130 128 128 128 122 122 122 120 120 120 116 116
116 110 110 110 107 107 107 101 101 101  96  96  96  92  92  92  88  88  88  82  82  82
 76  76  76  69  69  69  62  62  62  56  56  56  53  53  53  49  49  49  44  44  44  40
 40  40  35  35  35  32  32  32  26  26  26  21  21  21  14  14  14  13  13  13  11  11
 11  10  10  10   8   8   8   7   7   7   5   5   5   4   4   4
  6   6   6   7   7   7  10  10  10  11  11  11  12  12  12  13  13  13  15  15  15  16
 16  16  22  22  22  27  27  27  33  33  33  38  38  38  42  42  42  46  46  46  50  50
 50  53  53  53  60  60  60  68  68  68  75  75  75  81  81  81  88  88  88  93  93  93
100 100 100 106 106 106 112 112 112 117 117 117 122 122 122 128 128 128 138 138 138 142
142 142 147 147 147 149 149 149 149 149 149 147 147 147 142 142 142 134 134 134 125 125
125 118 118 118 112 112 112 107 107 107 102 102 102  96  96  96  92  92  92  86  86  86
 80  80  80  73  73  73  66  66  66  58  58  58  54  54  54  50  50  50  47  47  47  43
 43  43  38  38  38  33  33  33  28  28  28  22  22  22  16  16  16  14  14  14  12  12
 12  10  10  10   9   9   9   7   7   7   6   6   6   4   4   4
  6   6   6   8   8   8  10  10  10  11  11  11  13  13  13  15  15  15  15  15  15  18
 18  18  23  23  23  28  28  28  34  34  34  38  38  38  44  44  44  47  47  47  51  51
 51  56  56  56  65  65  65  72  72  72  79  79  79  85  85  85  91  91  91  97  97  97
105 105 105 112 112 112 118 118 118 125 125 125 135 135 135 144 144 144 153 153 153 159
159 159 161 161 161 162 162 162 163 163 163 161 161 161 157 157 157 151 151 151 142 142
142 131 131 131 120 120 120 113 113 113 107 107 107 101 101 101  95  95  95  89  89  89
 84  84  84  79  79  79  70  70  70  62  62  62  55  55  55  52  52  52  48  48  48  44
 44  44  39  39  39  35  35  35  29  29  29  23  23  23  17  17  17  14  14  14  13  13
 13  11  11  11   9   9   9   8   8   8   6   6   6   5   5   5
  7   7   7   8   8   8  10  10  10  11  11  11  13  13  13  14  14  14  16  16  16  19
 19  19  25  25  25  29  29  29  35  35  35  41  41  41  45  45  45  49  49  49  52  52
 52  58  58  58  68  68  68  76  76  76  83  83  83  89  89  89  95  95  95 104 104 104
111 111 111 119 119 119 125 125 125 138 138 138 147 147 147 158 158 158 164 164 164 169
169 169 173 173 173 174 174 174 174 174 174 172 172 172 169 169 169 164 164 164 156 156
156 146 146 146 132 132 132 119 119 119 112 112 112 105 105 105  97  97  97  92  92  92
 88  88  88  81  81  81  74  74  74  66  66  66  57  57  57  53  53  53  48  48  48  45
 45  45  41  41  41  36  36  36  31  31  31  25  25  25  20  20  20  14  14  14  13  13
 13  12  12  12   9   9   9   8   8   8   6   6   6   5   5   5
  7   7   7   9   9   9  10  10  10  12  12  12  13  13  13  14  14  14  16  16  16  20
 20  20  26  26  26  31  31  31  36  36  36  41  41  41  46  46  46  50  50  50  54  54
 54  62  62  62  70  70  70  78  78  78  84  84  84  91  91  91  99  99  99 107 107 107
117 117 117 123 123 123 134 134 134 149 149 149 158 158 158 168 168 168 183 183 183 219
219 219 220 220 220 221 221 221 221 221 221 220 220 220 187 187 187 173 173 173 167 167
167 157 157 157 144 144 144 128 128 128 117 117 117 110 110 110 102 102 102  96  96  96
 89  89  89  83  83  83  77  77  77  68  68  68  59  59  59  54  54  54  51  51  51  46
 46  46  42  42  42  37  37  37  32  32  32  26  26  26  21  21  21  14  14  14  13  13
 13  11  11  11  10  10  10   8   8   8   7   7   7   5   5   5
  8   8   8   9   9   9  10  10  10  12  12  12  13  13  13  15  15  15  16  16  16  21
 21  21  26  26  26  31  31  31  37  37  37  41  41  41  45  45  45  50  50  50  55  55
 55  65  65  65  73  73  73  80  80  80  87  87  87  93  93  93 102 102 102 110 110 110
120 120 120 126 126 126 143 143 143 156 156 156 166 166 166 193 193 193 220 220 220 222
222 222 223 223 223 223 223 223 222 222 222 223 223 223 222 222 222 197 197 197 175 175
175 166 166 166 154 154 154 139 139 139 121 121 121 113 113 113 106 106 106  98  98  98
 91  91  91  85  85  85  78  78  78  71  71  71  62  62  62  55  55  55  50  50  50  47
 47  47  43  43  43  38  38  38  33  33  33  27  27  27  22  22  22  16  16  16  13  13
 13  12  12  12  10  10  10   9   9   9   7   7   7   6   6   6
  8   8   8   9   9   9  10  10  10  12  12  12  14  14  14  15  15  15  16  16  16  22
 22  22  28  28  28  32  32  32  37  37  37  43  43  43  47  47  47  51  51  51  56  56
 56  66  66  66  74  74  74  82  82  82  90  90  90  96  96  96 106 106 106 114 114 114
124 124 124 134 134 134 150 150 150 162 162 162 175 175 175 221 221 221 222 222 222 247
247 247 252 252 252 252 252 252 251 251 251 223 223 223 222 222 222 221 221 221 180 180
180 171 171 171 161 161 161 148 148 148 130 130 130 118 118 118 109 109 109 100 100 100
 92  92  92  86  86  86  80  80  80  72  72  72  65  65  65  55  55  55  52  52  52  47
 47  47  43  43  43  39  39  39  33  33  33  28  28  28  23  23  23  16  16  16  13  13
 13  12  12  12  11  11  11   9   9   9   7   7   7   5   5   5
  8   8   8   9   9   9  11  11  11  12  12  12  14  14  14  15  15  15  17  17  17  22
 22  22  28  28  28  33  33  33  38  38  38  43  43  43  47  47  47  52  52  52  58  58
 58  66  66  66  77  77  77  84  84  84  90  90  90  97  97  97 109 109 109 118 118 118
126 126 126 140 140 140 156 156 156 167 167 167 205 205 205 221 221 221 245 245 245 252
252 252 252 252 252 252 252 252 252 252 252 250 250 250 223 223 223 223 223 223 207 207
207 177 177 177 166 166 166 152 152 152 135 135 135 120 120 120 111 111 111 102 102 102
 95  95  95  89  89  89  81  81  81  74  74  74  65  65  65  56  56  56  53  53  53  47
 47  47  43  43  43  39  39  39  33  33  33  28  28  28  23  23  23  16  16  16  14  14
 14  12  12  12  10  10  10   9   9   9   8   8   8   5   5   5
  8   8   8   9   9   9  11  11  11  12  12  12  13  13  13  16  16  16  16  16  16  22
 22  22  28  28  28  33  33  33  38  38  38  42  42  42  47  47  47  51  51  51  59  59
 59  68  68  68  77  77  77  84  84  84  90  90  90 100 100 100 109 109 109 120 120 120
127 127 127 142 142 142 158 158 158 171 171 171 219 219 219 221 221 221 252 252 252 252
252 252 252 252 252 252 252 252 252 252 252 252 252 252 223 223 223 223 223 223 222 222
222 179 179 179 168 168 168 155 155 155 139 139 139 121 121 121 111 111 111 104 104 104
 95  95  95  89  89  89  83  83  83  74  74  74  66  66  66  56  56  56  51  51  51  49
 49  49  43  43  43  38  38  38  34  34  34  28  28  28  23  23  23  17  17  17  14  14
 14  12  12  12  11  11  11   9   9   9   7   7   7   6   6   6
  8   8   8   9   9   9  11  11  11  13  13  13  14  14  14  15  15  15  17  17  17  22
 22  22  27  27  27  33  33  33  38  38  38  42  42  42  47  47  47  51  51  51  59  59
 59  68  68  68  77  77  77  85  85  85  91  91  91 100 100 100 110 110 110 120 120 120
128 128 128 145 145 145 160 160 160 173 173 173 219 219 219 222 222 222 252 252 252 251
251 251 252 252 252 252 252 252 252 252 252 252 252 252 223 223 223 223 223 223 222 222
222 181 181 181 169 169 169 156 156 156 141 141 141 122 122 122 112 112 112 104 104 104
 95  95  95  89  89  89  82  82  82  75  75  75  66  66  66  57  57  57  51  51  51  47
 47  47  43  43  43  38  38  38  34  34  34  29  29  29  22  22  22  17  17  17  13  13
 13  12  12  12  11  11  11   9   9   9   8   8   8   5   5   5
  7   7   7   9   9   9  10  10  10  12  12  12  14  14  14  15  15  15  16  16  16  21
 21  21  26  26  26  32  32  32  38  38  38  42  42  42  47  47  47  51  51  51  59  59
 59  69  69  69  76  76  76  84  84  84  91  91  91 101 101 101 110 110 110 120 120 120
128 128 128 144 144 144 158 158 158 173 173 173 210 210 210 222 222 222 228 228 228 252
252 252 252 252 252 252 252 252 252 252 252 245 245 245 223 223 223 223 223 223 214 214
214 179 179 179 169 169 169 155 155 155 140 140 140 122 122 122 113 113 113 105 105 105
 95  95  95  89  89  89  83  83  83  74  74  74  66  66  66  56  56  56  52  52  52  48
 48  48  43  43  43  38  38  38  34  34  34  28  28  28  23  23  23  15  15  15  13  13
 13  12  12  12  10  10  10   9   9   9   7   7   7   6   6   6
  7   7   7   9   9   9  11  11  11  12  12  12  14  14  14  15  15  15  17  17  17  21
 21  21  27  27  27  31  31  31  38  38  38  41  41  41  46  46  46  51  51  51  58  58
 58  68  68  68  76  76  76  83  83  83  89  89  89  99  99  99 108 108 108 119 119 119
127 127 127 141 141 141 156 156 156 169 169 169 187 187 187 222 222 222 223 223 223 227
227 227 252 252 252 252 252 252 241 241 241 223 223 223 222 222 222 223 223 223 192 192
192 177 177 177 166 166 166 154 154 154 136 136 136 122 122 122 111 111 111 102 102 102
 94  94  94  88  88  88  81  81  81  74  74  74  64  64  64  56  56  56  52  52  52  47
 47  47  42  42  42  37  37  37  32  32  32  28  28  28  21  21  21  16  16  16  13  13
 13  12  12  12  10  10  10   8   8   8   7   7   7   5   5   5
  7   7   7   9   9   9  11  11  11  12  12  12  14  14  14  15  15  15  16  16  16  20
 20  20  26  26  26  31  31  31  37  37  37  41  41  41  46  46  46  50  50  50  56  56
 56  65  65  65  74  74  74  82  82  82  89  89  89  97  97  97 107 107 107 117 117 117
125 125 125 137 137 137 151 151 151 163 163 163 177 177 177 208 208 208 222 222 222 223
223 223 223 223 223 223 223 223 223 223 223 223 223 223 223 223 223 210 210 210 183 183
183 171 171 171 161 161 161 149 149 149 132 132 132 120 120 120 111 111 111 102 102 102
 93  93  93  87  87  87  81  81  81  73  73  73  63  63  63  55  55  55  50  50  50  46
 46  46  41  41  41  37  37  37  32  32  32  27  27  27  21  21  21  14  14  14  13  13
 13  12  12  12  10  10  10   9   9   9   7   7   7   5   5   5
  7   7   7   9   9   9  11  11  11  12  12  12  14  14  14  15  15  15  16  16  16  19
 19  19  25  25  25  30  30  30  36  36  36  40  40  40  45  45  45  49  49  49  55  55
 55  64  64  64  73  73  73  81  81  81  87  87  87  95  95  95 104 104 104 114 114 114
123 123 123 129 129 129 146 146 146 158 158 158 169 169 169 179 179 179 205 205 205 222
222 222 223 223 223 223 223 223 223 223 223 222 222 222 207 207 207 184 184 184 176 176
176 166 166 166 155 155 155 141 141 141 125 125 125 116 116 116 108 108 108  99  99  99
 91  91  91  86  86  86  78  78  78  70  70  70  61  61  61  53  53  53  50  50  50  45
 45  45  41  41  41  35  35  35  30  30  30  26  26  26  20  20  20  14  14  14  14  14
 14  11  11  11  10  10  10   9   9   9   7   7   7   5   5   5
  7   7   7   8   8   8  10  10  10  12  12  12  13  13  13  15  15  15  16  16  16  18
 18  18  24  24  24  29  29  29  34  34  34  39  39  39  44  44  44  48  48  48  52  52
 52  61  61  61  71  71  71  78  78  78  85  85  85  90  90  90 101 101 101 110 110 110
118 118 118 126 126 126 136 136 136 149 149 149 161 161 161 171 171 171 179 179 179 184
184 184 196 196 196 202 202 202 197 197 197 186 186 186 183 183 183 175 175 175 167 167
167 159 159 159 146 146 146 133 133 133 122 122 122 112 112 112 104 104 104  96  96  96
 91  91  91  84  84  84  76  76  76  68  68  68  59  59  59  52  52  52  49  49  49  44
 44  44  39  39  39  35  35  35  29  29  29  24  24  24  19  19  19  14  14  14  13  13
 13  11  11  11  10  10  10   9   9   9   7   7   7   5   5   5
  7   7   7   8   8   8  10  10  10  11  11  11  13  13  13  14  14  14  16  16  16  17
 17  17  22  22  22  27  27  27  32  32  32  37  37  37  42  42  42  47  47  47  50  50
 50  58  58  58  67  67  67  76  76  76  82  82  82  89  89  89  97  97  97 106 106 106
114 114 114 122 122 122 129 129 129 141 141 141 150 150 150 160 160 160 167 167 167 173
173 173 177 177 177 178 178 178 179 179 179 176 176 176 171 171 171 166 166 166 160 160
160 148 148 148 137 137 137 124 124 124 117 117 117 108 108 108 100 100 100  93  93  93
 87  87  87  80  80  80  73  73  73  64  64  64  56  56  56  50  50  50  47  47  47  43
 43  43  38  38  38  34  34  34  27  27  27  23  23  23  17  17  17  13  13  13  13  13
 13  11  11  11   9   9   9   8   8   8   6   6   6   5   5   5
  7   7   7   8   8   8  10  10  10  11  11  11  13  13  13  14  14  14  15  15  15  17
 17  17  21  21  21  26  26  26  31  31  31  36  36  36  41  41  41  45  45  45  48  48
 48  55  55  55  64  64  64  71  71  71  80  80  80  85  85  85  91  91  91 100 100 100
108 108 108 116 116 116 125 125 125 128 128 128 138 138 138 148 148 148 155 155 155 160
160 160 164 164 164 166 166 166 165 165 165 162 162 162 159 159 159 154 154 154 146 146
146 136 136 136 125 125 125 119 119 119 111 111 111 103 103 103  95  95  95  90  90  90
 83  83  83  77  77  77  70  70  70  61  61  61  53  53  53  49  49  49  45  45  45  40
 40  40  37  37  37  32  32  32  26  26  26  22  22  22  15  15  15  13  13  13  12  12
 12  10  10  10   9   9   9   8   8   8   5   5   5   4   4   4
  6   6   6   7   7   7   9   9   9  11  11  11  12  12  12  13  13  13  15  15  15  16
 16  16  18  18  18  24  24  24  29  29  29  35  35  35  39  39  39  42  42  42  47  47
 47  51  51  51  59  59  59  67  67  67  74  74  74  81  81  81  88  88  88  95  95  95
103 103 103 109 109 109 117 117 117 123 123 123 128 128 128 132 132 132 142 142 142 146
146 146 151 151 151 152 152 152 153 153 153 151 151 151 146 146 146 139 139 139 131 131
131 124 124 124 118 118 118 111 111 111 105 105 105  97  97  97  91  91  91  86  86  86
 80  80  80  73  73  73  66  66  66  58  58  58  51  51  51  47  47  47  43  43  43  39
 39  39  34  34  34  29  29  29  24  24  24  19  19  19  14  14  14  13  13  13  12  12
 12  10  10  10   9   9   9   7   7   7   6   6   6   4   4   4
  5   5   5   7   7   7   9   9   9  10  10  10  12  12  12  13  13  13  14  14  14  16
 16  16  17  17  17  21  21  21  27  27  27  31  31  31  37  37  37  40  40  40  44  44
 44  48  48  48  55  55  55  62  62  62  70  70  70  77  77  77  83  83  83  88  88  88
 94  94  94 102 102 102 108 108 108 116 116 116 122 122 122 125 125 125 128 128 128 130
130 130 134 134 134 135 135 135 135 135 135 133 133 133 129 129 129 127 127 127 122 122
122 117 117 117 111 111 111 106 106 106  98  98  98  92  92  92  87  87  87  81  81  81
 75  75  75  69  69  69  60  60  60  52  52  52  48  48  48  46  46  46  41  41  41  37
 37  37  32  32  32  28  28  28  22  22  22  17  17  17  14  14  14  13  13  13  12  12
 12  10  10  10   8   8   8   7   7   7   5   5   5   4   4   4
  5   5   5   6   6   6   8   8   8   9   9   9  11  11  11  12  12  12  14  14  14  15
 15  15  17  17  17  18  18  18  24  24  24  30  30  30  34  34  34  38  38  38  42  42
 42  46  46  46  50  50  50  57  57  57  66  66  66  72  72  72  78  78  78  83  83  83
 89  89  89  95  95  95 102 102 102 107 107 107 112 112 112 116 116 116 120 120 120 122
122 122 124 124 124 125 125 125 124 124 124 123 123 123 121 121 121 118 118 118 113 113
113 108 108 108 104 104 104  97  97  97  92  92  92  86  86  86  82  82  82  75  75  75
 72  72  72  63  63  63  55  55  55  50  50  50  46  46  46  43  43  43  39  39  39  34
 34  34  30  30  30  25  25  25  21  21  21  15  15  15  13  13  13  12  12  12  11  11
 11  10  10  10   7   7   7   6   6   6   4   4   4   3   3   3
  4   4   4   6   6   6   7   7   7   9   9   9  10  10  10  12  12  12  13  13  13  14
 14  14  16  16  16  17  17  17  21  21  21  26  26  26  32  32  32  36  36  36  40  40
 40  44  44  44  47  47  47  51  51  51  59  59  59  67  67  67  73  73  73  78  78  78
 84  84  84  88  88  88  92  92  92  99  99  99 103 103 103 107 107 107 110 110 110 113
113 113 115 115 115 115 115 115 114 114 114 114 114 114 110 110 110 108 108 108 105 105
105 101 101 101  95  95  95  91  91  91  87  87  87  83  83  83  77  77  77  72  72  72
 64  64  64  57  57  57  51  51  51  47  47  47  43  43  43  40  40  40  37  37  37  32
 32  32  27  27  27  22  22  22  17  17  17  15  15  15  13  13  13  11  11  11  11  11
 11   8   8   8   7   7   7   5   5   5   4   4   4   2   2   2
  4   4   4   6   6   6   7   7   7   9   9   9   9   9   9  12  12  12  13  13  13  14
 14  14  15  15  15  16  16  16  20  20  20  23  23  23  29  29  29  34  34  34  38  38
 38  41  41  41  44  44  44  47  47  47  53  53  53  60  60  60  66  66  66  72  72  72
 77  77  77  81  81  81  86  86  86  89  89  89  93  93  93  98  98  98 101 101 101 104
104 104 104 104 104 105 105 105 105 105 105 103 103 103 102 102 102  99  99  99  95  95
 95  92  92  92  88  88  88  85  85  85  81  81  81  77  77  77  72  72  72  64  64  64
 59  59  59  52  52  52  48  48  48  45  45  45  42  42  42  37  37  37  34  34  34  29
 29  29  25  25  25  19  19  19  15  15  15  14  14  14  13  13  13  11  11  11  10  10
 10   8   8   8   7   7   7   5   5   5   3   3   3   2   2   2
  3   3   3   4   4   4   6   6   6   8   8   8   9   9   9  10  10  10  11  11  11  14
 14  14  15  15  15  15  15  15  17  17  17  21  21  21  26  26  26  30  30  30  34  34
 34  39  39  39  41  41  41  44  44  44  48  48  48  53  53  53  59  59  59  65  65  65
 72  72  72  76  76  76  80  80  80  84  84  84  86  86  86  89  89  89  90  90  90  92
 92  92  95  95  95  95  95  95  93  93  93  93  93  93  92  92  92  89  89  89  87  87
 87  85  85  85  83  83  83  78  78  78  75  75  75  70  70  70  65  65  65  58  58  58
 51  51  51  48  48  48  46  46  46  41  41  41  39  39  39  34  34  34  31  31  31  26
 26  26  21  21  21  16  16  16  14  14  14  12  12  12  12  12  12  10  10  10   8   8
  8   8   8   8   6   6   6   5   5   5   3   3   3   1   1   1
  2   2   2   4   4   4   5   5   5   7   7   7   8   8   8  10  10  10  11  11  11  13
 13  13  14  14  14  14  14  14  16  16  16  17  17  17  22  22  22  27  27  27  32  32
 32  34  34  34  39  39  39  42  42  42  44  44  44  47  47  47  51  51  51  58  58  58
 64  64  64  69  69  69  73  73  73  76  76  76  79  79  79  81  81  81  84  84  84  85
 85  85  87  87  87  87  87  87  87  87  87  86  86  86  85  85  85  83  83  83  81  81
 81  79  79  79  75  75  75  71  71  71  68  68  68  63  63  63  57  57  57  50  50  50
 48  48  48  46  46  46  43  43  43  38  38  38  35  35  35  31  31  31  28  28  28  23
 23  23  18  18  18  15  15  15  13  13  13  12  12  12  11  11  11   9   9   9   8   8
  8   7   7   7   5   5   5   3   3   3   2   2   2   0   0   0
  1   1   1   3   3   3   4   4   4   6   6   6   7   7   7   9   9   9  10  10  10  11
 11  11  13  13  13  14  14  14  15  15  15  16  16  16  19  19  19  23  23  23  27  27
 27  30  30  30  34  34  34  38  38  38  42  42  42  45  45  45  47  47  47  50  50  50
 54  54  54  60  60  60  65  65  65  68  68  68  72  72  72  75  75  75  77  77  77  78
 78  78  79  79  79  79  79  79  80  80  80  79  79  79  78  78  78  76  76  76  74  74
 74  71  71  71  69  69  69  63  63  63  60  60  60  54  54  54  49  49  49  47  47  47
 45  45  45  42  42  42  39  39  39  36  36  36  32  32  32  27  27  27  23  23  23  19
 19  19  15  15  15  14  14  14  13  13  13  12  12  12  10  10  10   9   9   9   8   8
  8   6   6   6   4   4   4   3   3   3   1   1   1   0   0   0
  1   1   1   2   2   2   4   4   4   5   5   5   7   7   7   8   8   8   9   9   9  11
 11  11  12  12  12  13  13  13  14  14  14  16  16  16  16  16  16  19  19  19  23  23
 23  27  27  27  30  30  30  35  35  35  38  38  38  40  40  40  42  42  42  46  46  46
 48  48  48  51  51  51  56  56  56  60  60  60  63  63  63  67  67  67  68  68  68  70
 70  70  72  72  72  72  72  72  71  71  71  71  71  71  70  70  70  68  68  68  64  64
 64  62  62  62  58  58  58  55  55  55  51  51  51  48  48  48  46  46  46  44  44  44
 40  40  40  39  39  39  35  35  35  31  31  31  28  28  28  24  24  24  20  20  20  15
 15  15  14  14  14  13  13  13  11  11  11  10  10  10   9   9   9   8   8   8   6   6
  6   5   5   5   4   4   4   2   2   2   0   0   0   0   0   0
  0   0   0   2   2   2   3   3   3   4   4   4   6   6   6   7   7   7   8   8   8  10
 10  10  11  11  11  12  12  12  14  14  14  14  14  14  15  15  15  17  17  17  19  19
 19  23  23  23  27  27  27  30  30  30  34  34  34  36  36  36  39  39  39  42  42  42
 44  44  44  47  47  47  48  48  48  51  51  51  55  55  55  56  56  56  59  59  59  60
 60  60  61  61  61  61  61  61  62  62  62  61  61  61  60  60  60  59  59  59  56  56
 56  53  53  53  50  50  50  48  48  48  46  46  46  45  45  45  42  42  42  39  39  39
 37  37  37  35  35  35  31  31  31  28  28  28  24  24  24  20  20  20  15  15  15  14
 14  14  13  13  13  12  12  12  11  11  11  10  10  10   8   8   8   7   7   7   6   6
  6   4   4   4   2   2   2   1   1   1   0   0   0   0   0   0
  0   0   0   1   1   1   2   2   2   3   3   3   5   5   5   7   7   7   7   7   7   9
  9   9  11  11  11  11  11  11  13  13  13  13  13  13  15  15  15  16  16  16  17  17
 17  19  19  19  23  23  23  27  27  27  29  29  29  32  32  32  36  36  36  38  38  38
 40  40  40  42  42  42  43  43  43  45  45  45  47  47  47  48  48  48  49  49  49  51
 51  51  51  51  51  52  52  52  53  53  53  51  51  51  49  49  49  49  49  49  49  49
 49  47  47  47  46  46  46  44  44  44  42  42  42  40  40  40  38  38  38  36  36  36
 33  33  33  30  30  30  26  26  26  23  23  23  19  19  19  15  15  15  14  14  14  13
 13  13  13  13  13  11  11  11   9   9   9   9   9   9   7   7   7   6   6   6   4   4
  4   3   3   3   1   1   1   0   0   0   0   0   0   0   0   0
  0   0   0   0   0   0   1   1   1   2   2   2   4   4   4   5   5   5   7   7   7   8
  8   8   9   9   9  10  10  10  11  11  11  12  12  12  14  14  14  15  15  15  16  16
 16  17  17  17  18  18  18  21  21  21  24  24  24  28  28  28  31  31  31  34  34  34
 36  36  36  38  38  38  40  40  40  41  41  41  42  42  42  43  43  43  44  44  44  45
 45  45  45  45  45  46  46  46  45  45  45  45  45  45  45  45  45  44  44  44  43  43
 43  42  42  42  41  41  41  40  40  40  39  39  39  37  37  37  33  33  33  30  30  30
 28  28  28  26  26  26  22  22  22  18  18  18  15  15  15  14  14  14  13  13  13  13
 13  13  11  11  11  10  10  10   9   9   9   7   7   7   6   6   6   5   5   5   3   3
  3   2   2   2   1   1   1   0   0   0   0   0   0   0   0   0
  0   0   0   0   0   0   0   0   0   1   1   1   3   3   3   4   4   4   6   6   6   7
  7   7   8   8   8   9   9   9  10  10  10  11  11  11  13  13  13  14  14  14  15  15
 15  16  16  16  16  16  16  17  17  17  20  20  20  23  23  23  27  27  27  29  29  29
 31  31  31  33  33  33  34  34  34  36  36  36  37  37  37  39  39  39  40  40  40  40
 40  40  41  41  41  42  42  42  41  41  41  42  42  42  41  41  41  40  40  40  39  39
 39  38  38  38  37  37  37  36  36  36  33  33  33  31  31  31  29  29  29  26  26  26
 24  24  24  20  20  20  17  17  17  15  15  15  14  14  14  13  13  13  13  13  13  12
 12  12  10  10  10   9   9   9   8   8   8   6   6   6   5   5   5   4   4   4   2   2
  2   1   1   1   0   0   0   0   0   0   0   0   0   0   0   0
  0   0   0   0   0   0   0   0   0   0   0   0   2   2   2   3   3   3   4   4   4   5
  5   5   7   7   7   8   8   8   9   9   9  10  10  10  12  12  12  12  12  12  13  13
 13  14  14  14  15  15  15  16  16  16  17  17  17  18  18  18  21  21  21  24  24  24
 26  26  26  28  28  28  30  30  30  32  32  32  33  33  33  34  34  34  35  35  35  36
 36  36  36  36  36  37  37  37  36  36  36  36  36  36  36  36  36  36  36  36  34  34
 34  33  33  33  32  32  32  31  31  31  28  28  28  27  27  27  24  24  24  21  21  21
 18  18  18  16  16  16  15  15  15  14  14  14  13  13  13  12  12  12  11  11  11  10
 10  10   9   9   9   8   8   8   7   7   7   5   5   5   5   5   5   3   3   3   1   1
  1   0   0   0   0   0   0   0   0   0   0   0   0   0   0   0
  0   0   0   0   0   0   0   0   0   0   0   0   0   0   0   2   2   2   3   3   3   4
  4   4   6   6   6   7   7   7   8   8   8  10  10  10  11  11  11  12  12  12  12  12
 12  13  13  13  14  14  14  15  15  15  15  15  15  16  16  16  16  16  16  18  18  18
 21  21  21  22  22  22  24  24  24  26  26  26  28  28  28  29  29  29  30  30  30  31
 31  31  31  31  31  32  32  32  31  31  31  32  32  32  30  30  30  31  31  31  28  28
 28  28  28  28  26  26  26  25  25  25  23  23  23  21  21  21  18  18  18  16  16  16
 15  15  15  14  14  14  13  13  13  13  13  13  12  12  12  11  11  11  10  10  10   9
  9   9   8   8   8   7   7   7   5   5   5   5   5   5   3   3   3   2   2   2   0   0
  0   0   0   0   0   0   0   0   0   0   0   0   0   0   0   0
  0   0   0   0   0   0   0   0   0   0   0   0   0   0   0   1   1   1   2   2   2   4
  4   4   4   4   4   6   6   6   7   7   7   8   8   8   9   9   9  11  11  11  11  11
 11  12  12  12  12  12  12  13  13  13  14  14  14  15  15  15  15  15  15  16  16  16
 16  16  16  17  17  17  19  19  19  20  20  20  22  22  22  24  24  24  24  24  24  26
 26  26  26  26  26  25  25  25  26  26  26  25  25  25  24  24  24  24  24  24  23  23
 23  22  22  22  21  21  21  19  19  19  17  17  17  15  15  15  15  15  15  15  15  15
 14  14  14  14  14  14  12  12  12  12  12  12  11  11  11  10  10  10   9   9   9   8
  8   8   7   7   7   5   5   5   5   5   5   4   4   4   2   2   2   0   0   0   0   0
  0   0   0   0   0   0   0   0   0   0   0   0   0   0   0   0
  0   0   0   0   0   0   0   0   0   0   0   0   0   0   0   0   0   0   1   1   1   2
  2   2   3   3   3   5   5   5   5   5   5   6   6   6   7   7   7   9   9   9   9   9
  9  11  11  11  11  11  11  12  12  12  13  13  13  13  13  13  14  14  14  15  15  15
 15  15  15  16  16  16  16  16  16  16  16  16  17  17  17  18  18  18  18  18  18  20
 20  20  19  19  19  20  20  20  20  20  20  20  20  20  19  19  19  19  19  19  18  18
 18  17  17  17  16  16  16  16  16  16  15  15  15  14  14  14  14  14  14  13  13  13
 13  13  13  12  12  12  11  11  11  10  10  10   9   9   9   8   8   8   7   7   7   6
  6   6   6   6   6   4   4   4   3   3   3   2   2   2   0   0   0   0   0   0   0   0
  0   0   0   0   0   0   0   0   0   0   0   0   0   0   0   0
  0   0   0   0   0   0   0   0   0   0   0   0   0   0   0   0   0   0   0   0   0   1
  1   1   2   2   2   3   3   3   4   4   4   6   6   6   6   6   6   8   8   8   9   9
  9  10  10  10  10  10  10  11  11  11  11  11  11  12  12  12  13  13  13  13  13  13
 14  14  14  14  14  14  15  15  15  15  15  15  16  16  16  16  16  16  16  16  16  16
 16  16  16  16  16  16  16  16  15  15  15  16  16  16  16  16  16  16  16  16  15  15
 15  15  15  15  15  15  15  14  14  14  13  13  13  13  13  13  12  12  12  12  12  12
 12  12  12  11  11  11  10  10  10   9   9   9   8   8   8   7   7   7   6   6   6   5
  5   5   4   4   4   3   3   3   2   2   2   1   1   1   0   0   0   0   0   0   0   0
  0   0   0   0   0   0   0   0   0   0   0   0   0   0   0   0
  0   0   0   0   0   0   0   0   0   0   0   0   0   0   0   0   0   0   0   0   0   0
  0   0   0   0   0   2   2   2   3   3   3   5   5   5   5   5   5   6   6   6   7   7
  7   8   8   8   9   9   9  10  10  10  10  10  10  11  11  11  12  12  12  12  12  12
 13  13  13  13  13  13  13  13  13  14  14  14  14  14  14  14  14  14  15  15  15  14
 14  14  14  14  14  14  14  14  14  14  14  15  15  15  14  14  14  14  14  14  14  14
 14  14  14  14  13  13  13  13  13  13  12  12  12  12  12  12  12  12  12  11  11  11
 10  10  10   9   9   9   9   9   9   8   8   8   7   7   7   6   6   6   5   5   5   4
  4   4   2   2   2   1   1   1   0   0   0   0   0   0   0   0   0   0   0   0   0   0
  0   0   0   0   0   0   0   0   0   0   0   0   0   0   0   0
  0   0   0   0   0   0   0   0   0   0   0   0   0   0   0   0   0   0   0   0   0   0
  0   0   0   0   0   0   0   0   2   2   2   3   3   3   3   3   3   5   5   5   6   6
  6   6   6   6   7   7   7   8   8   8   9   9   9  10  10  10  10  10  10  11  11  11
 11  11  11  11  11  11  12  12  12  12  12  12  13  13  13  13  13  13  13  13  13  13
 13  13  13  13  13  13  13  13  13  13  13  13  13  13  13  13  13  12  12  12  13  13
 13  12  12  12  12  12  12  11  11  11  11  11  11  10  10  10  10  10  10   9   9   9
  8   8   8   8   8   8   7   7   7   7   7   7   5   5   5   4   4   4   4   4   4   3
  3   3   1   1   1   0   0   0   0   0   0   0   0   0   0   0   0   0   0   0   0   0
  0   0   0   0   0   0   0   0   0   0   0   0   0   0   0   0
  0   0   0   0   0   0   0   0   0   0   0   0   0   0   0   0   0   0   0   0   0   0
  0   0   0   0   0   0   0   0   0   0   0   2   2   2   3   3   3   3   3   3   4   4
  4   5   5   5   6   6   6   7   7   7   8   8   8   8   8   8   9   9   9   9   9   9
 10  10  10  10  10  10  10  10  10  11  11  11  11  11  11  11  11  11  12  12  12  12
 12  12  12  12  12  12  12  12  11  11  11  12  12  12  11  11  11  12  12  12  11  11
 11  10  10  10  10  10  10  10  10  10   9   9   9   9   9   9   9   9   9   8   8   8
  7   7   7   6   6   6   6   6   6   5   5   5   3   3   3   3   3   3   2   2   2   1
  1   1   0   0   0   0   0   0   0   0   0   0   0   0   0   0   0   0   0   0   0   0
  0   0   0   0   0   0   0   0   0   0   0   0   0   0   0   0
  0   0   0   0   0   0   0   0   0   0   0   0   0   0   0   0   0   0   0   0   0   0
  0   0   0   0   0   0   0   0   0   0   0   0   0   0   1   1   1   2   2   2   3   3
  3   3   3   3   4   4   4   5   5   5   6   6   6   6   6   6   7   7   7   8   8   8
  8   8   8   8   8   8   9   9   9   9   9   9   9   9   9  10  10  10  10  10  10  10
 10  10  10  10  10  10  10  10  10  10  10  10  10  10  10  10  10  10  10  10   9   9
  9   9   9   9   9   9   9   9   9   9   8   8   8   8   8   8   7   7   7   7   7   7
  6   6   6   5   5   5   4   4   4   3   3   3   2   2   2   2   2   2   1   1   1   0
  0   0   0   0   0   0   0   0   0   0   0   0   0   0   0   0   0   0   0   0   0   0
  0   0   0   0   0   0   0   0   0   0   0   0   0   0   0   0
  0   0   0   0   0   0   0   0   0   0   0   0   0   0   0   0   0   0   0   0   0   0
  0   0   0   0   0   0   0   0   0   0   0   0   0   0   0   0   0   0   0   0   1   1
  1   1   1   1   2   2   2   4   4   4   4   4   4   5   5   5   5   5   5   6   6   6
  7   7   7   7   7   7   8   8   8   8   8   8   8   8   8   8   8   8   8   8   8   8
  8   8   8   8   8   9   9   9   8   8   8   9   9   9   9   9   9   8   8   8   8   8
  8   7   7   7   7   7   7   7   7   7   6   6   6   6   6   6   5   5   5   5   5   5
  4   4   4   4   4   4   3   3   3   1   1   1   1   1   1   0   0   0   0   0   0   0
  0   0   0   0   0   0   0   0   0   0   0   0   0   0   0   0   0   0   0   0   0   0
  0   0   0   0   0   0   0   0   0   0   0   0   0   0   0   0
  0   0   0   0   0   0   0   0   0   0   0   0   0   0   0   0   0   0   0   0   0   0
  0   0   0   0   0   0   0   0   0   0   0   0   0   0   0   0   0   0   0   0   0   0
  0   0   0   0   1   1   1   2   2   2   3   3   3   3   3   3   4   4   4   5   5   5
  4   4   4   5   5   5   6   6   6   6   6   6   6   6   6   7   7   7   7   7   7   7
  7   7   7   7   7   7   7   7   7   7   7   7   7   7   6   6   6   7   7   7   6   6
  6   6   6   6   6   6   6   6   6   6   5   5   5   4   4   4   4   4   4   3   3   3
  2   2   2   1   1   1   1   1   1   0   0   0   0   0   0   0   0   0   0   0   0   0
  0   0   0   0   0   0   0   0   0   0   0   0   0   0   0   0   0   0   0   0   0   0
  0   0   0   0   0   0   0   0   0   0   0   0   0   0   0   0
  0   0   0   0   0   0   0   0   0   0   0   0   0   0   0   0   0   0   0   0   0   0
  0   0   0   0   0   0   0   0   0   0   0   0   0   0   0   0   0   0   0   0   0   0
  0   0   0   0   0   0   0   0   0   0   1   1   1   1   1   1   2   2   2   2   2   2
  3   3   3   4   4   4   4   4   4   5   5   5   5   5   5   5   5   5   5   5   5   6
  6   6   5   5   5   5   5   5   5   5   5   6   6   6   5   5   5   5   5   5   5   5
  5   5   5   5   4   4   4   4   4   4   3   3   3   3   3   3   2   2   2   1   1   1
  1   1   1   0   0   0   0   0   0   0   0   0   0   0   0   0   0   0   0   0   0   0
  0   0   0   0   0   0   0   0   0   0   0   0   0   0   0   0   0   0   0   0   0   0
  0   0   0   0   0   0   0   0   0   0   0   0   0   0   0   0
