P3
64 64
255
 52  39  19  52  39  19  53  40  19  53  40  19  55  42  21  54  40  19  55  41  20  54
 41  19  55  41  20  55  41  19  55  42  21  56  41  20  55  42  20  57  43  21  56  43
 21  57  42  20  57  42  20  57  44  21  56  43  21  57  43  21  59  45  22  58  45  22
 59  45  23  60  47  23  61  46  24  60  47  24  61  47  26  60  48  25  60  47  25  61
 47  26  61  48  25  61  48  26  61  49  26  62  48  26  62  48  25  61  48  25  61  48
 25  62  48  26  63  49  26  62  48  25  63  48  25  62  48  24  62  48  25  61  47  24
 60  45  22  61  46  23  61  46  22  61  47  22  63  47  24  61  47  23  63  48  24  64
 48  23  64  48  23  64  49  24  64  49  23  66  50  24  65  48  22  65  49  23  65  50
 23  67  50  23  68  51  23  68  50  23  68  51  22  68  51  22
 52  40  19  53  40  19  54  41  20  53  40  19  53  40  20  54  41  20  55  42  20  55
 42  20  55  41  19  54  41  19  56  42  21  56  42  20  57  43  21  56  43  21  57  43
 20  56  43  20  55  42  20  58  44  23  59  44  23  60  46  24  60  45  23  59  46  24
 60  46  23  62  48  25  61  47  26  62  48  26  62  48  27  64  49  29  63  49  28  63
 49  28  63  48  27  64  50  29  64  50  27  64  49  28  63  48  27  63  49  28  63  48
 27  64  49  27  64  49  28  64  49  27  62  49  26  63  48  26  64  49  26  62  48  24
 62  47  23  61  47  23  62  47  23  62  47  24  62  47  23  63  47  23  64  47  23  64
 49  24  65  49  22  65  49  23  65  48  24  66  50  24  65  49  23  66  50  23  66  50
 23  68  50  24  68  51  24  69  51  24  69  51  23  70  52  24
 52  40  20  53  39  19  53  40  19  54  41  20  54  40  19  54  40  19  55  40  20  55
 41  20  56  42  20  56  42  21  56  42  20  56  42  20  56  42  21  56  42  19  57  43
 21  57  43  21  57  43  22  60  47  24  60  46  23  61  47  25  60  47  24  62  48  26
 63  48  27  63  48  26  63  49  28  63  49  27  65  51  29  65  50  29  64  49  28  64
 50  28  64  50  28  65  51  30  66  51  30  65  52  30  65  52  30  65  50  28  65  51
 31  65  50  28  65  51  29  66  51  28  66  51  29  65  51  28  65  51  27  65  51  28
 66  51  28  66  51  27  65  49  26  64  48  23  64  48  23  65  49  24  64  48  23  66
 50  23  65  50  23  66  49  24  67  50  24  67  51  24  67  51  24  67  51  24  67  51
 24  69  51  23  70  52  24  70  53  24  69  52  23  72  53  24
 52  39  19  52  40  19  54  40  19  54  40  19  55  41  20  55  41  20  55  41  19  55
 41  20  56  42  20  57  42  20  56  42  19  56  43  20  57  43  21  58  43  22  60  46
 23  60  45  23  61  47  25  60  48  26  64  50  27  63  48  26  63  48  27  65  51  28
 65  50  29  66  51  29  65  52  30  66  52  30  64  51  29  67  53  31  66  53  30  66
 54  30  67  53  31  67  54  31  68  54  32  67  53  31  66  52  31  68  54  32  66  53
 31  68  54  31  67  53  30  67  54  30  68  53  30  68  53  30  68  52  29  68  53  30
 67  52  29  67  53  28  67  51  26  66  51  26  66  50  24  66  50  24  66  50  24  67
 50  24  68  51  24  68  51  24  68  51  23  68  52  24  70  52  25  70  52  25  70  53
 25  72  54  25  71  53  24  73  54  25  74  54  24  75  55  24
 51  39  18  53  40  20  53  40  19  53  40  20  55  41  20  55  42  21  56  42  20  55
 41  21  56  43  20  56  42  19  56  42  20  59  44  21  60  46  22  60  45  22  61  47
 24  61  48  25  63  49  26  63  50  27  65  50  27  65  50  30  65  51  28  66  52  29
 67  54  31  66  53  30  66  53  30  67  53  32  66  53  31  70  55  33  69  55  32  69
 54  32  69  55  32  71  56  34  69  55  33  70  55  33  69  54  33  72  58  34  70  56
 33  68  54  31  68  55  32  70  56  32  70  56  32  70  54  32  70  57  33  70  56  32
 70  54  31  70  55  29  69  53  28  69  54  29  70  54  28  70  53  27  70  53  26  68
 52  25  70  52  26  70  52  25  71  53  26  70  52  24  71  53  24  72  54  25  73  55
 26  73  55  26  75  55  25  75  56  25  77  58  26  77  57  25
 52  40  19  53  40  19  54  41  20  54  41  19  55  42  20  54  42  19  55  42  20  56
 42  20  57  43  20  57  44  21  59  44  21  60  46  22  59  46  22  61  48  24  64  50
 26  65  50  28  64  50  28  66  51  28  66  53  30  67  53  31  67  54  30  68  54  32
 69  55  33  68  55  31  69  54  33  71  56  33  70  56  34  70  56  33  70  56  33  71
 57  35  70  57  34  71  57  34  72  58  34  72  58  36  73  59  34  72  57  33  73  58
 36  71  56  32  73  58  35  71  56  33  74  58  34  72  58  34  72  59  34  72  57  33
 72  57  31  73  57  32  74  57  33  73  58  31  71  55  29  72  55  29  73  56  29  72
 56  27  71  54  26  71  54  25  73  57  27  74  56  27  74  56  26  76  57  28  75  55
 26  76  57  26  78  59  28  78  58  25  79  59  26  81  60  27
 52  39  20  53  40  19  53  40  18  53  40  19  54  41  19  55  41  19  56  42  20  57
 42  20  58  44  21  58  44  21  60  45  22  62  48  25  62  48  25  63  48  26  64  50
 27  66  51  29  66  53  30  67  53  31  67  53  31  69  55  32  70  55  32  70  55  32
 70  56  33  70  56  33  71  57  33  72  58  35  71  57  34  72  58  36  73  59  36  72
 58  35  72  58  35  73  58  36  74  60  36  75  61  38  74  60  37  74  59  36  74  60
 36  75  61  37  75  61  37  73  59  35  73  59  35  74  60  36  76  60  35  75  59  34
 75  59  34  74  58  33  75  60  34  75  60  33  74  58  32  74  57  30  76  58  30  74
 58  28  74  56  28  74  56  26  74  56  27  74  56  26  76  57  27  77  57  27  78  59
 28  78  59  25  79  59  27  80  60  27  81  60  27  82  61  26
 53  41  19  55  42  19  55  42  20  57  42  20  56  42  20  58  44  21  57  44  20  59
 44  21  60  46  23  60  46  24  63  49  24  64  50  28  65  50  27  67  51  29  68  53
 30  68  54  31  70  56  32  70  56  33  70  56  32  71  56  32  72  57  33  72  58  34
 72  59  36  73  58  35  73  59  36  73  59  36  76  61  38  75  61  38  76  61  38  75
 61  38  76  61  39  76  61  38  76  61  37  75  61  38  76  61  39  76  61  39  77  62
 39  78  62  40  77  62  39  76  63  37  76  61  36  76  61  37  75  61  36  76  61  36
 77  63  37  77  61  35  76  60  34  77  61  35  77  61  35  77  61  35  76  59  31  76
 58  30  76  59  31  77  57  28  75  57  28  77  58  28  75  57  27  76  57  27  78  59
 28  79  60  28  81  61  28  79  59  26  81  60  28  81  60  27
 55  43  21  58  44  21  58  44  21  60  46  22  61  47  23  62  47  24  60  46  22  63
 48  24  65  49  24  66  52  28  66  51  28  67  52  29  70  54  31  71  56  33  69  55
 31  72  57  33  74  57  33  73  59  34  74  59  36  73  59  36  75  60  35  76  61  37
 77  63  38  76  63  39  77  62  38  78  63  39  78  63  40  80  65  41  79  64  42  81
 67  44  81  67  43  82  67  44  81  67  43  81  67  43  81  67  43  81  66  43  80  65
 42  80  65  41  80  64  41  80  66  41  79  64  40  80  65  40  80  65  40  81  65  40
 81  65  39  79  62  36  79  63  36  80  62  36  79  63  35  79  62  36  78  62  35  77
 59  31  80  61  33  79  60  32  79  60  31  76  58  28  78  59  29  78  59  29  79  60
 29  79  59  28  81  62  30  81  61  28  82  62  29  82  62  28
 58  44  22  60  45  23  62  48  25  64  49  25  64  48  24  65  49  24  66  51  27  67
 53  28  67  52  28  70  55  31  72  56  33  71  56  32  73  59  35  75  60  35  76  60
 35  76  61  36  74  60  35  77  62  37  78  62  38  78  63  38  79  63  38  79  64  40
 81  66  42  80  65  42  82  68  44  83  67  44  85  69  46  86  72  48  87  72  47  88
 73  51  88  73  51  88  74  50  88  74  50  88  73  50  88  72  49  87  72  49  86  71
 46  85  71  47  85  71  45  84  69  44  84  68  43  83  67  42  81  65  41  83  68  43
 83  65  41  83  65  41  82  66  39  83  67  39  82  66  39  82  64  38  81  64  36  79
 63  35  80  64  34  80  62  34  81  62  34  79  62  31  79  61  31  79  61  31  79  60
 29  80  60  29  80  60  29  81  61  30  82  62  30  82  61  29
 58  44  23  62  48  25  64  49  26  66  50  27  66  51  26  69  53  27  69  53  28  70
 55  29  72  56  33  72  56  31  73  58  33  76  60  34  77  60  36  76  60  37  78  63
 38  79  64  38  80  65  40  80  65  41  80  65  41  80  65  41  81  66  41  82  67  43
 85  70  45  87  72  47  88  73  48  89  74  51  92  77  53  91  76  53  93  79  55  94
 79  55  94  80  56  94  79  55  95  79  56  95  81  57  94  78  55  93  79  56  92  76
 53  93  78  54  91  76  52  90  75  51  88  73  49  88  73  48  87  71  45  85  69  44
 85  69  44  85  68  43  85  69  42  84  68  40  83  67  40  83  67  39  83  65  38  84
 65  38  83  66  39  82  65  37  81  64  35  82  64  35  81  63  33  81  63  32  80  62
 31  80  61  31  81  62  31  83  63  31  82  63  30  83  63  31
 59  45  23  64  49  25  66  50  26  68  52  28  69  54  28  71  55  30  71  56  31  74
 57  33  74  58  34  76  60  36  77  62  36  79  62  37  78  63  38  78  63  38  82  66
 41  81  65  40  82  66  42  81  65  42  83  68  43  84  69  44  87  72  47  89  73  49
 90  76  51  93  77  54  94  79  55  95  80  57  94  80  57  97  83  59  99  84  61  99
 84  61  97  83  60  98  84  61  98  84  62  99  84  61  98  84  61  98  84  61  99  82
 59  98  82  60  97  82  59  96  81  57  94  79  54  94  78  54  91  76  51  90  74  49
 87  70  44  87  72  46  86  71  44  85  69  42  86  69  43  85  69  40  86  68  41  83
 67  39  83  65  38  83  67  38  83  66  38  82  64  36  84  64  36  82  64  34  80  61
 31  81  63  32  82  63  32  82  62  31  82  62  31  82  62  31
 61  47  25  65  51  27  67  52  27  68  52  27  70  55  31  72  56  32  74  58  35  78
 60  35  76  60  36  77  62  37  79  62  37  78  63  38  80  64  40  82  65  41  82  66
 43  83  67  43  83  67  43  83  68  45  86  71  47  90  74  50  92  77  53  93  78  55
 95  79  56  96  82  59  98  83  60  98  84  60 100  85  62 101  86  64 102  88  65 102
 88  65 102  88  66 104  90  67 103  88  67 103  87  66 102  88  67 100  87  64 101  88
 65 101  87  64 102  86  64  98  84  62 100  83  60  96  81  57  96  81  57  94  79  53
 91  76  52  90  74  48  88  73  46  86  70  44  86  69  44  86  69  42  87  69  43  87
 70  42  85  68  40  86  67  40  85  67  39  84  66  38  83  65  36  82  64  35  82  62
 34  81  62  33  81  62  32  82  62  32  82  63  32  84  64  33
 61  47  26  63  49  26  66  51  27  71  55  30  71  56  32  73  57  33  77  61  36  77
 61  37  77  62  36  78  62  37  80  64  40  81  64  39  82  65  41  81  66  42  84  69
 44  85  70  45  85  70  46  86  71  48  91  75  52  93  78  54  96  81  57  98  82  60
 98  84  61  99  85  62 102  88  64 103  89  67 102  88  67 103  90  68 105  92  69 106
 91  71 105  92  71 105  91  70 106  93  71 106  92  70 106  91  69 105  91  69 104  91
 69 104  91  68 104  90  67 104  88  66 102  88  65 101  86  63  99  84  60  97  82  59
 95  80  56  95  79  55  93  76  51  88  72  46  87  70  45  87  71  45  87  70  45  88
 71  45  86  69  42  85  68  41  86  68  40  84  67  39  85  67  39  83  65  37  84  66
 36  84  67  36  83  64  33  83  65  34  83  64  35  84  65  34
 67  54  32  68  54  31  72  57  31  73  58  34  76  59  36  79  64  38  79  63  39  80
 64  40  81  65  40  81  66  41  84  69  43  84  69  44  84  69  44  87  71  46  87  72
 47  89  73  48  92  75  53  94  80  55  96  81  58  98  83  60 101  86  63 101  87  64
105  91  68 108  92  70 106  92  69 107  93  72 109  95  73 111  97  74 112  98  76 111
 99  77 113  99  78 114 100  77 114 101  79 112  98  77 111  97  75 112  98  76 112  99
 77 110  95  73 109  95  73 107  93  71 108  94  71 105  91  68 103  90  66 102  87  64
101  87  63  99  84  60  98  82  57  94  79  54  92  76  51  91  74  47  91  74  48  90
 73  47  89  72  46  91  74  47  90  72  43  88  70  43  87  70  42  88  69  41  87  68
 40  88  69  40  85  66  36  85  66  37  86  68  37  87  69  38
 72  57  34  75  60  35  77  63  38  78  63  37  81  65  41  82  67  41  83  67  42  83
 67  44  85  69  44  88  72  47  87  71  48  87  72  48  88  72  47  91  74  49  93  76
 52  96  80  55  96  81  59  99  83  60 103  88  65 104  90  66 105  92  69 108  94  72
110  97  73 112  98  75 113  99  77 114 101  80 119 104  84 119 105  84 120 107  86 121
108  86 121 108  88 121 108  88 123 110  90 121 108  87 122 108  88 121 108  86 120 106
 85 117 103  82 115 101  79 113 100  78 114 100  77 111  97  74 109  94  72 108  94  71
108  93  69 106  91  67 103  87  64 102  86  61 100  83  58  98  81  55  95  79  50  92
 76  49  93  76  50  93  76  49  94  76  49  93  75  47  91  74  45  90  73  44  92  74
 46  89  71  42  89  70  39  87  69  39  89  71  41  89  71  40
 77  62  38  79  64  40  80  65  40  82  66  42  83  68  43  87  70  46  86  70  45  88
 73  47  90  73  48  89  74  49  90  75  49  92  77  51  92  76  52  96  80  55  97  81
 57 101  86  61 103  87  64 105  91  67 108  94  70 110  95  72 112  97  74 114 100  77
115 101  79 117 103  82 122 107  87 125 112  91 127 113  93 129 115  95 128 116  97 131
117  98 132 120 101 132 120 100 132 120  99 131 119  99 131 118  99 130 117  96 127 114
 94 125 112  92 123 111  90 121 108  86 118 104  83 117 104  82 115 101  78 115 101  78
112  97  73 111  96  72 109  94  69 108  91  68 106  89  65 102  86  62 101  84  58  98
 79  53  97  80  53  97  80  53  96  78  52  97  80  52  97  79  52  96  78  50  93  76
 47  95  76  49  94  77  47  94  75  46  92  74  43  94  75  45
 79  64  41  83  68  44  85  70  45  87  71  46  86  72  46  90  74  50  90  74  49  93
 77  52  93  76  51  94  78  54  93  78  53  96  80  56  98  82  58 101  85  63 103  87
 64 105  90  67 108  93  70 111  95  72 114  99  78 115 101  80 118 104  82 120 106  84
121 108  87 126 112  93 129 116  97 131 120  99 135 123 103 136 123 105 137 126 107 139
126 107 139 128 109 139 128 110 139 128 110 141 129 110 139 128 108 138 125 107 135 125
105 135 123 103 134 121 101 130 115  96 126 113  92 124 110  90 121 107  86 119 105  83
118 104  82 116 103  80 115 101  78 114  98  76 110  95  70 108  93  69 105  90  64 104
 87  61 102  85  60 101  84  58 100  84  57 102  85  58 101  82  57  98  82  54 100  83
 56  98  81  52  96  78  51  97  80  51  96  77  49  95  77  48
 84  69  46  86  70  48  88  73  50  91  76  51  91  76  52  93  78  55  94  80  55  97
 81  56  97  82  57  95  81  56  97  83  60 100  84  60 105  89  65 106  91  69 109  95
 73 112  98  75 115 101  79 118 104  82 117 104  82 121 107  86 124 111  90 128 115  94
131 119 100 134 121 104 138 125 108 139 128 110 141 130 113 142 132 115 144 133 116 145
135 117 147 136 118 146 135 119 147 135 119 147 135 118 146 135 117 145 133 116 143 131
114 141 130 112 140 128 111 138 125 107 134 123 103 133 121 101 128 116  95 125 112  91
121 108  88 123 109  87 122 108  86 118 103  81 116 102  79 114  98  75 112  96  73 111
 94  71 105  89  65 106  89  63 105  87  62 103  87  60 104  88  62 103  87  60 102  86
 59 102  85  58 104  86  57 102  85  57  99  83  54  99  81  53
 87  73  52  88  74  52  91  75  54  93  79  56  94  81  59  92  78  56  96  82  57 100
 85  61  98  84  62 100  86  63 101  88  64 104  90  67 107  94  71 110  96  75 111  98
 76 117 103  82 119 105  84 120 107  87 121 109  90 125 114  94 131 118  99 134 123 104
138 127 108 140 130 111 144 133 115 147 136 119 147 137 120 148 138 122 149 139 123 150
141 124 154 144 128 152 144 128 152 142 126 152 142 126 152 142 127 150 139 123 147 137
121 147 137 119 147 135 118 144 132 116 140 130 113 137 125 107 135 123 104 132 119  99
127 113  93 124 112  91 124 111  91 122 108  88 121 107  86 118 103  81 116 100  77 113
 98  75 112  97  73 108  93  69 108  92  67 106  92  65 107  91  66 107  91  65 103  88
 63 105  90  64 104  88  63 105  89  61 103  86  61 102  85  57
 89  75  53  91  77  56  95  80  58  95  81  59  96  82  60  96  83  60 100  86  62 101
 85  65 101  87  64 100  86  64 103  90  67 108  93  72 111  99  77 113 100  80 116 103
 83 119 106  86 121 109  89 122 110  91 126 114  95 131 119 101 135 125 106 139 128 111
142 132 115 145 135 119 149 138 122 150 140 124 152 142 128 154 146 131 157 148 134 159
150 136 159 150 137 160 151 137 160 152 138 160 150 136 160 150 136 157 148 133 154 145
130 152 141 126 151 140 125 148 138 123 146 135 119 144 132 115 141 129 111 136 124 105
132 120 102 128 116  97 126 113  94 125 112  92 123 110  90 120 108  87 118 105  86 118
102  81 116 100  77 110  97  74 111  95  72 111  96  71 109  92  70 108  93  68 108  93
 69 106  92  69 108  92  68 105  90  65 104  88  64 103  88  63
 93  78  58  93  80  58  94  80  59  96  83  61  96  83  62  99  86  65 100  87  66 101
 88  65 103  90  68 103  89  69 106  93  74 110  96  77 113 101  80 115 104  84 119 107
 88 120 109  90 123 112  93 124 114  95 132 120 102 136 126 110 142 130 115 144 134 118
145 136 122 149 140 126 152 143 129 157 148 134 158 150 136 162 154 141 164 156 143 166
158 144 167 160 146 167 160 147 166 158 146 167 159 146 164 156 143 163 154 142 161 152
139 159 150 136 155 146 132 153 143 129 150 141 126 147 138 123 144 134 118 141 129 113
137 127 109 134 123 105 130 118 100 127 115  95 126 113  94 125 112  94 123 109  90 119
106  87 119 105  84 116 102  81 113 100  78 111  98  77 111  96  74 110  96  74 109  95
 75 107  94  71 109  94  70 107  93  68 107  92  70 105  91  69
 93  80  59  94  81  61  95  82  63  97  83  63  99  86  66 101  88  68 100  88  68 104
 91  70 104  91  72 106  94  73 109  96  78 113 101  82 115 104  85 118 107  89 122 110
 93 123 112  96 127 115  98 130 119 103 137 126 112 141 130 116 145 135 121 147 137 123
150 142 129 156 146 134 159 151 139 163 155 142 166 158 146 168 161 150 170 164 152 173
165 154 173 166 155 174 167 157 172 166 155 173 166 155 172 164 153 170 162 151 166 159
148 164 157 144 162 154 140 157 149 136 155 146 133 151 141 128 149 139 125 145 135 120
143 133 118 138 128 112 133 122 106 131 119 102 129 118 100 127 116  98 126 114  97 123
111  92 121 109  89 119 105  87 119 106  87 114 100  81 112  99  79 111  97  78 110  98
 77 112  99  80 110  96  76 109  95  75 108  94  73 108  94  75
 94  83  63  96  84  65  97  85  65 100  86  67 101  90  71 102  89  70 104  91  73 105
 92  74 104  93  74 108  96  77 111  99  82 115 103  86 118 107  90 120 109  93 123 112
 97 125 115 100 129 119 103 133 124 108 140 131 116 144 135 121 147 139 125 151 141 128
155 147 134 160 152 140 163 155 144 168 161 151 172 165 154 174 167 157 176 170 160 177
170 161 180 173 164 181 174 165 179 174 164 179 173 164 177 170 160 176 169 159 172 166
156 169 162 152 167 159 147 164 156 144 158 150 138 155 147 134 152 143 129 147 139 125
145 136 122 142 133 119 136 127 112 132 121 105 129 119 102 129 119 102 128 117 100 125
114  97 122 110  93 121 109  91 117 107  88 115 101  84 113 100  83 112 100  81 113 100
 81 112 100  82 109  98  78 111  98  78 108  97  77 108  96  76
 94  85  67  97  86  68  98  87  69 100  88  71 101  90  72 102  91  74 105  94  78 104
 93  76 107  95  78 110 100  82 113 103  87 118 109  91 120 110  94 122 113  97 125 115
101 128 118 104 132 124 109 137 129 115 142 134 121 147 140 127 150 143 130 156 149 136
160 154 142 163 157 147 169 163 152 172 166 157 176 170 161 179 174 164 185 179 171 187
182 174 190 185 178 191 186 179 192 188 181 189 185 178 188 182 175 184 178 170 178 173
164 175 169 159 171 165 155 167 160 149 163 156 145 159 152 140 154 147 135 152 144 132
148 141 127 145 135 123 140 132 120 136 127 113 132 123 108 130 121 106 128 119 104 126
116 101 123 113  98 121 112  95 120 111  93 116 106  91 113 103  87 112 103  87 113 104
 87 112 104  86 110 101  85 109 100  83 109 100  85 108 101  84
 96  89  74 100  92  76 101  92  78 101  94  78 103  96  81 102  97  81 104  97  82 107
 99  84 109 101  88 111 105  90 115 109  95 120 114  99 121 116 102 124 118 105 126 121
107 131 126 113 137 131 119 140 135 124 146 141 130 149 145 135 153 148 138 159 154 145
164 159 150 169 165 157 174 171 163 176 173 164 182 179 172 189 185 179 193 190 184 196
194 187 198 196 190 200 197 192 199 197 192 197 195 189 195 193 187 193 190 183 188 185
178 181 178 171 175 171 163 171 167 159 167 163 154 163 159 149 158 153 143 155 150 140
151 145 135 146 142 130 144 139 128 138 133 121 133 128 115 133 127 115 129 124 112 127
121 108 125 119 106 123 118 105 119 114 102 117 111  98 113 108  94 112 107  93 112 109
 94 111 108  93 109 105  91 109 105  92 107 105  91 108 105  91
 99  93  80 101  97  83 102  98  83 102  99  84 104 101  87 105 102  89 107 103  91 107
104  90 110 106  94 112 111  96 117 114 102 120 117 105 123 119 108 125 123 111 128 125
114 133 130 119 138 136 125 143 141 131 148 146 137 152 150 141 157 155 146 162 160 151
168 166 158 172 172 164 178 176 169 185 183 176 190 189 183 197 196 190 202 201 196 205
204 199 207 206 201 209 207 203 209 208 204 208 206 202 204 203 198 201 200 195 198 197
192 191 190 183 184 182 176 176 174 166 173 171 163 167 165 157 163 161 152 158 156 147
154 152 143 151 149 140 147 145 136 142 140 130 135 134 123 133 131 120 131 130 119 131
129 117 127 125 113 125 124 112 120 120 109 120 119 107 115 114 102 111 112 101 113 112
102 113 112 100 112 111  99 112 112 101 111 113  99 111 110 100
104 101  89 104 102  89 107 104  93 108 106  94 108 106  94 111 111  98 110 109  98 112
110  98 115 114 102 118 118 107 121 120 109 126 125 114 128 127 116 130 130 120 134 134
123 138 137 128 145 144 134 149 148 139 154 154 145 156 156 148 163 162 154 169 168 161
174 174 167 179 178 171 184 183 178 193 192 186 200 199 195 206 205 201 210 210 206 214
213 209 221 220 217 225 224 222 222 221 218 215 214 211 213 212 209 210 209 205 205 204
200 201 200 195 192 191 186 186 185 179 180 179 173 174 173 166 169 168 161 165 164 157
162 162 154 159 159 151 153 151 144 149 148 140 145 145 136 142 141 133 138 137 129 136
136 127 133 134 125 134 134 125 129 130 120 124 125 116 123 124 115 122 125 116 123 124
114 121 121 112 120 121 112 122 126 116 122 125 116 119 121 111
113 112 102 115 115 104 113 113 101 115 115 105 118 119 109 119 119 109 119 119 108 118
119 108 124 126 116 128 128 119 131 130 121 131 131 123 135 135 127 138 140 132 142 142
134 147 146 137 151 151 143 158 158 151 160 162 154 166 166 158 170 169 163 177 177 170
182 182 177 184 184 179 194 194 189 201 201 197 208 208 204 213 213 209 227 227 225 237
237 235 238 238 236 238 238 236 238 238 236 237 237 235 229 229 227 218 217 214 213 212
209 208 207 203 202 202 198 194 195 190 186 186 181 181 181 175 177 177 171 171 173 167
170 170 165 166 167 161 161 161 155 158 159 152 155 157 151 151 152 145 148 149 142 145
148 140 146 150 144 144 148 141 140 143 135 138 141 133 137 141 135 135 140 134 136 140
133 132 137 129 133 139 133 136 142 137 135 140 135 133 138 131
124 126 117 124 124 117 126 127 120 128 132 124 129 133 124 128 132 124 127 130 121 132
135 128 137 141 134 139 141 135 141 143 134 143 145 138 146 151 144 149 152 146 151 152
147 156 159 151 162 164 158 167 169 164 169 172 166 174 175 169 179 180 175 185 187 183
189 191 187 195 196 191 203 203 199 208 209 207 216 217 214 231 232 230 238 239 237 239
239 238 239 240 239 239 240 238 239 239 238 239 240 238 240 240 239 233 234 232 220 220
218 214 215 212 210 210 208 205 206 203 196 198 194 190 191 186 187 189 184 184 186 182
179 182 178 176 178 173 173 176 171 170 174 170 166 170 165 163 168 164 160 164 161 160
164 162 158 162 159 155 162 159 155 160 158 154 160 156 154 161 157 148 157 153 148 158
155 154 162 158 154 162 158 149 160 156 151 161 159 153 164 164
137 144 140 140 146 141 144 150 144 143 151 146 141 149 144 143 150 147 147 153 148 149
155 152 149 155 152 152 158 154 155 161 157 158 165 161 160 165 162 161 167 163 163 168
167 171 175 173 175 180 176 176 182 178 179 182 180 186 189 186 190 194 190 193 197 194
197 200 199 203 207 205 212 214 212 217 219 218 224 226 225 240 241 241 241 242 241 243
244 243 254 254 254 254 254 254 249 249 249 242 242 242 241 242 241 241 242 241 228 230
229 222 224 223 219 221 220 212 215 214 204 207 205 201 205 203 197 202 199 194 198 197
188 193 191 187 194 193 186 192 191 184 190 189 179 185 184 176 183 181 175 183 181 175
184 183 174 181 180 170 178 178 171 179 179 171 182 180 168 177 178 165 174 176 163 174
174 169 180 180 169 181 181 166 179 179 164 177 178 168 181 182
153 165 164 157 169 168 160 171 172 160 170 169 158 167 169 160 170 169 165 175 176 164
174 173 164 173 173 165 174 175 171 182 183 173 183 184 175 183 183 173 183 182 179 188
187 185 194 194 186 193 193 188 195 196 190 197 198 197 204 203 200 206 206 203 209 208
206 211 211 213 217 218 220 224 224 224 227 227 238 240 240 243 244 244 245 246 246 254
254 254 254 254 254 254 254 254 254 254 254 251 252 252 243 245 244 243 244 244 240 242
242 228 231 231 224 228 227 219 222 222 212 217 217 208 213 213 205 211 212 201 207 207
196 204 203 195 203 204 196 205 205 192 201 201 189 198 199 184 193 195 187 197 198 187
196 199 184 196 195 180 190 192 182 193 195 182 195 197 180 191 195 176 189 191 176 188
192 177 191 194 179 193 196 179 194 197 176 189 194 179 194 198
164 178 181 168 181 184 170 183 185 172 183 185 169 181 184 171 184 187 173 186 187 175
188 191 175 188 191 176 188 189 180 192 195 183 194 197 184 194 196 183 195 196 188 198
200 191 201 203 195 202 204 195 204 206 197 207 208 202 212 213 206 214 216 209 216 217
211 218 219 217 223 225 223 228 229 227 232 233 243 245 245 244 245 246 254 254 254 254
254 254 254 254 254 254 254 254 254 254 254 254 254 254 244 246 246 244 246 246 244 246
246 231 234 235 227 232 233 222 227 228 216 222 223 212 218 220 208 217 218 206 215 217
202 211 213 202 211 214 200 210 212 198 209 211 196 207 209 193 204 207 191 203 207 190
202 205 191 202 206 187 200 204 188 201 205 187 201 204 186 201 203 183 199 202 182 198
202 184 199 203 184 199 203 183 199 202 179 194 200 180 197 202
169 185 190 173 188 192 175 189 193 174 191 195 174 191 196 176 191 196 177 192 196 180
194 198 182 196 200 181 195 200 185 199 203 187 199 203 189 201 205 189 202 205 192 204
208 194 206 209 199 209 212 200 210 213 199 210 213 206 215 217 208 216 219 211 220 222
212 220 223 218 225 227 224 230 231 228 234 235 243 246 246 244 246 247 254 254 255 254
254 255 254 254 255 254 254 255 254 254 255 254 254 255 245 247 248 245 247 247 244 246
247 231 235 237 228 234 235 223 229 231 217 224 227 213 221 223 211 220 223 209 218 221
204 214 217 203 213 216 202 212 216 200 211 214 196 208 211 191 205 208 192 205 208 193
206 209 191 205 208 187 201 205 188 203 206 186 201 204 185 200 204 182 197 202 180 196
201 182 197 201 182 198 202 181 197 201 178 193 198 179 195 201
163 184 189 166 185 191 170 189 193 171 189 194 171 187 193 170 189 193 175 192 197 180
194 199 178 193 198 179 195 198 182 197 200 186 200 203 188 202 205 186 201 204 189 201
205 194 207 209 197 209 211 198 210 213 198 209 213 202 212 215 207 217 220 210 219 221
211 219 221 216 224 226 222 229 231 226 232 234 238 241 243 243 246 246 252 252 253 254
254 255 254 254 254 254 254 254 254 254 254 253 254 254 244 247 247 244 246 247 238 242
243 229 235 236 225 232 233 220 227 230 213 222 225 210 219 222 208 218 220 204 215 219
201 212 216 199 211 214 197 210 214 196 209 211 193 206 210 188 202 206 189 204 208 189
205 209 188 201 206 183 200 204 181 199 203 184 200 205 182 198 203 177 195 198 176 194
200 177 195 199 178 195 200 174 194 199 172 192 197 172 194 199
158 181 187 157 181 188 160 183 190 164 185 191 162 185 190 163 184 191 166 189 194 172
192 197 174 191 197 174 192 198 178 194 198 181 196 201 182 199 203 181 197 202 182 198
203 188 203 207 192 206 210 192 207 211 195 208 211 198 211 214 203 214 218 204 216 219
206 217 220 210 220 223 217 226 228 221 229 231 225 232 234 242 245 246 243 246 246 252
253 253 254 254 254 254 254 254 254 254 254 243 246 247 243 245 246 242 245 246 227 233
235 224 231 233 220 228 231 215 225 227 208 219 222 204 216 220 202 215 218 198 212 215
196 210 215 192 208 212 192 207 212 189 205 210 186 203 208 183 200 205 181 201 205 181
201 205 179 198 203 177 197 202 175 195 201 174 194 199 172 194 200 169 192 197 168 190
196 168 190 196 168 191 198 167 190 197 166 189 195 163 188 195
149 177 185 151 178 185 153 181 188 154 181 189 155 181 189 157 181 190 159 184 192 162
187 193 166 188 194 167 189 195 169 191 197 172 194 198 173 193 199 174 195 200 177 197
201 182 200 205 184 203 207 187 205 209 189 206 210 192 208 212 195 210 215 197 212 216
201 215 218 203 216 219 210 222 225 215 225 228 219 228 231 230 236 238 241 244 246 241
245 246 242 246 246 242 245 246 242 245 246 242 245 246 241 245 246 231 237 239 222 230
232 218 228 230 213 224 227 208 221 224 200 214 218 197 212 215 195 211 215 191 209 213
188 207 211 187 205 210 183 202 208 181 201 206 179 199 205 176 198 204 174 197 202 174
195 202 171 194 201 170 194 200 167 192 197 165 190 196 164 189 195 162 189 194 160 187
194 160 185 193 157 185 192 158 185 192 157 184 191 155 182 192
143 173 183 145 175 183 145 176 184 147 177 185 148 178 186 149 178 186 151 180 187 151
180 189 158 183 190 159 185 191 161 188 194 163 187 194 167 190 196 169 191 198 170 192
199 172 194 201 176 197 203 180 200 206 182 201 206 183 203 208 187 205 210 191 208 213
195 212 216 198 214 218 203 216 220 208 220 224 212 224 227 217 227 230 223 232 234 239
243 244 239 244 245 240 244 245 240 244 245 239 243 245 224 232 234 218 228 231 215 226
229 211 223 226 205 219 222 199 214 218 194 211 215 191 209 214 188 206 211 185 204 210
182 204 209 179 201 207 178 200 206 175 197 203 170 194 200 169 194 200 167 193 199 164
191 197 164 189 196 161 190 196 159 186 194 154 184 191 155 183 191 151 180 188 150 181
190 149 181 189 150 180 189 147 178 186 148 180 189 144 177 187
134 168 178 136 170 179 139 172 182 140 171 182 139 172 182 139 173 183 141 174 183 144
175 183 147 178 186 148 179 187 151 181 188 156 184 192 157 185 191 158 185 192 160 188
195 163 189 196 167 192 198 170 195 201 175 198 204 177 199 205 180 201 207 184 204 209
186 206 211 190 208 213 194 211 216 200 215 220 203 218 221 208 221 225 211 224 227 214
226 228 216 227 230 215 226 230 215 227 230 214 226 229 213 225 228 211 223 227 207 221
225 203 218 222 196 212 216 189 208 213 186 207 212 183 204 209 181 202 208 178 200 206
174 198 204 173 197 204 170 196 202 167 193 200 161 189 197 159 187 196 158 186 195 157
186 194 156 185 193 149 182 190 148 181 190 146 180 189 145 178 186 140 175 185 139 175
186 137 174 185 139 174 185 135 173 183 134 173 183 133 172 182
126 162 172 127 163 173 131 166 177 132 167 177 130 167 178 131 168 178 132 169 178 135
169 178 136 171 180 139 174 183 141 175 184 144 177 186 146 178 187 148 180 188 151 182
190 152 184 191 159 187 194 161 189 197 165 192 199 169 195 201 171 196 203 174 198 205
178 201 208 182 204 210 185 206 212 188 208 213 194 212 217 198 215 220 203 218 223 206
221 225 207 221 225 208 222 226 208 223 227 207 222 226 205 220 224 202 219 223 198 215
220 193 212 217 187 208 213 183 205 211 180 204 210 177 200 208 174 198 206 171 197 204
168 196 202 166 194 202 161 191 198 158 187 196 154 186 195 153 185 193 151 184 192 148
182 190 146 180 190 143 180 190 140 177 187 136 175 186 133 171 184 131 172 184 132 173
185 130 171 183 128 172 182 127 169 182 126 169 181 125 169 180
118 157 167 119 159 171 119 161 171 122 161 173 123 163 174 124 163 175 124 164 175 122
163 174 127 167 177 132 171 180 134 172 181 135 173 182 137 174 184 141 177 187 144 179
189 144 179 189 147 181 190 153 185 194 157 188 197 160 191 199 163 193 200 166 194 202
171 198 204 173 200 207 176 201 208 179 204 210 183 206 212 187 210 215 191 212 218 193
213 218 195 215 220 198 216 221 197 216 222 195 215 221 193 213 218 189 211 216 184 207
214 181 205 212 176 202 209 174 201 208 173 200 207 169 197 205 165 196 203 162 192 200
161 192 201 158 190 199 152 186 196 146 182 192 145 181 191 144 181 193 143 180 191 137
178 189 135 175 187 134 175 188 131 174 185 128 172 184 119 166 180 121 169 181 121 170
183 119 167 182 116 167 180 115 166 181 118 168 181 115 166 181
109 153 164 111 154 166 111 157 170 112 158 172 116 160 174 116 162 174 116 160 174 114
160 173 118 164 176 123 167 178 124 169 179 123 167 179 128 171 182 134 176 187 135 175
188 136 177 189 136 177 188 143 182 193 149 186 195 151 188 196 151 187 197 155 189 199
161 194 202 165 196 205 168 198 206 168 198 206 173 201 208 176 204 211 177 204 212 176
203 211 180 207 214 183 208 215 183 208 215 181 207 214 175 203 210 176 203 211 175 203
211 170 200 208 166 197 205 164 196 205 164 196 204 161 194 203 156 191 200 153 188 198
151 187 197 146 185 196 142 182 193 138 179 191 136 179 190 136 178 191 130 174 187 128
173 185 124 170 184 123 172 185 121 171 184 117 168 182 112 165 179 113 165 181 109 166
182 109 164 180 108 163 178 108 164 180 105 164 180 105 162 179
 99 146 162 101 151 164 104 153 166 106 155 168 104 156 170 106 156 171 109 158 173 108
158 171 108 157 173 110 162 177 115 163 177 117 165 178 120 168 181 123 171 184 126 172
186 128 172 185 130 174 186 134 177 189 137 181 192 143 183 193 145 184 195 149 187 197
152 189 200 154 191 201 156 192 202 160 195 204 163 197 205 166 198 208 168 200 209 168
199 208 169 200 209 170 202 210 169 201 209 168 199 208 168 199 208 167 199 208 164 197
207 162 195 204 157 192 203 155 192 202 154 191 201 151 189 198 147 186 196 146 185 196
141 182 194 136 181 193 133 178 189 129 175 188 127 175 188 126 173 187 125 172 186 121
170 184 118 169 183 115 167 182 113 168 182 111 165 181 107 163 179 105 162 177 106 164
180 106 164 180 103 163 178 103 163 178 103 163 180 101 162 179
 94 144 157  97 148 164  99 151 166 100 153 168 100 153 167 104 156 172 102 156 170 102
156 172 102 157 171 106 159 175 109 161 176 111 162 177 115 165 179 118 167 182 120 169
182 122 171 184 124 171 185 127 174 186 131 177 190 136 179 192 138 181 193 143 185 196
145 185 197 149 188 199 152 190 200 153 191 202 155 193 202 158 194 204 159 195 205 160
195 204 161 196 205 161 196 206 162 197 207 161 196 205 161 196 205 159 194 204 156 193
202 155 191 202 153 190 200 150 189 199 149 188 199 145 186 198 142 184 196 139 182 194
135 179 192 131 177 189 127 174 188 126 174 187 124 172 185 121 171 185 119 172 186 115
167 182 112 166 181 111 165 180 108 164 180 103 162 178 103 162 178 102 160 176 101 160
176 101 160 176 101 161 177  98 161 176  96 158 175  98 159 177
 87 140 155  93 146 161  96 150 164  96 150 166  98 151 165  97 152 167  98 152 168  99
153 169 100 154 170 101 156 171 105 159 174 107 160 175 110 162 177 114 164 178 117 168
180 118 169 183 122 171 185 123 171 186 124 172 186 130 175 188 132 178 190 136 180 192
139 182 194 143 185 196 146 186 197 148 187 198 149 189 199 150 189 200 154 191 201 153
191 202 154 191 202 153 190 201 154 192 202 155 192 202 154 191 201 151 189 201 150 188
199 150 189 200 145 186 198 145 185 196 141 183 195 138 182 194 136 181 192 131 178 190
128 175 188 124 173 187 122 173 185 121 171 185 118 169 184 115 167 182 112 166 181 111
166 181 108 164 179 105 162 178 101 160 176  97 157 174  97 158 175  96 157 174  95 157
174  94 158 175  94 158 175  93 156 174  91 155 174  88 154 173
 82 136 153  86 141 156  89 145 160  90 146 161  89 145 160  90 146 163  93 151 166  93
150 166  94 151 166  94 151 166  98 155 170 102 158 174 105 160 175 107 161 176 110 162
178 112 166 180 116 168 182 116 167 182 118 168 181 121 171 184 125 174 187 128 175 187
133 178 190 134 178 191 137 181 194 141 184 196 141 184 196 143 184 195 145 186 197 147
188 198 147 187 197 147 187 198 146 187 198 146 187 198 145 186 198 144 185 197 143 184
196 141 184 196 139 183 195 136 180 193 134 179 192 130 177 190 126 175 188 122 172 185
119 170 184 117 170 184 114 168 183 112 167 182 110 164 180 106 163 179 104 162 179 103
161 179  97 158 175  95 157 173  90 153 171  89 154 172  89 154 173  87 153 171  87 154
172  85 152 171  85 153 172  84 153 171  81 150 170  81 151 170
 76 133 149  79 135 152  80 137 154  81 139 155  82 140 157  84 143 160  85 144 161  85
145 162  84 145 161  88 147 164  89 150 167  93 153 169  96 154 170  99 156 172 103 159
175 104 162 177 106 162 178 109 163 178 112 166 181 113 167 182 115 168 182 117 169 183
122 172 186 126 175 189 128 177 190 131 178 190 133 178 191 135 180 193 135 181 193 137
182 194 137 180 193 137 182 193 137 183 195 137 182 194 137 181 194 134 180 192 135 180
193 131 178 192 128 176 189 124 173 188 123 174 188 119 172 187 114 169 184 113 167 182
110 166 182 109 166 182 108 165 181 102 162 178  98 160 177  96 161 177  93 158 175  91
156 174  85 153 172  82 151 170  83 152 170  79 150 169  77 148 168  74 148 168  76 148
168  75 148 168  73 148 168  69 145 167  70 146 167  71 147 168
 67 128 145  70 130 148  73 135 152  74 136 153  73 137 156  75 140 157  77 142 159  77
142 161  76 142 161  79 144 162  80 146 164  83 148 167  86 150 168  90 154 172  93 156
172  96 158 176  99 160 177 100 159 176 103 162 178 106 164 179 107 165 181 109 166 181
111 168 184 115 170 184 117 172 186 120 172 187 120 173 188 123 174 189 126 176 190 128
177 190 127 176 190 127 177 191 128 177 192 127 177 191 126 176 191 122 175 188 122 174
189 120 174 188 118 172 187 113 169 184 111 169 185 109 167 183 107 167 183 104 165 181
 99 161 178 101 163 180  97 161 179  95 161 178  89 157 176  87 156 175  84 155 173  80
154 173  76 150 170  72 148 168  72 148 169  70 147 169  69 147 168  64 145 167  66 145
166  65 146 168  65 145 167  62 144 166  59 142 165  59 143 166
 60 126 143  64 132 151  65 133 152  65 133 152  65 135 154  68 139 160  70 142 160  72
143 162  69 140 162  73 143 163  74 146 164  76 148 166  77 149 168  78 150 169  85 154
171  90 157 175  89 156 175  91 158 177  96 159 176  98 161 179 101 163 181  99 163 180
102 164 180 106 166 183 106 167 182 108 168 185 109 168 184 114 171 187 115 170 186 116
172 187 115 172 187 116 173 188 116 172 187 116 171 187 114 171 186 111 169 185 112 170
186 108 169 184 105 167 183 102 164 182 102 164 182 101 163 181 100 164 182  96 161 179
 93 160 178  92 159 178  91 158 176  87 156 176  83 154 174  81 153 173  80 152 173  75
149 171  68 146 167  67 145 166  68 145 168  67 145 167  63 145 166  63 143 166  62 143
166  62 144 166  59 141 163  55 140 162  55 140 164  57 141 163
 53 124 145  55 129 147  57 131 150  56 133 153  58 133 154  61 136 157  64 139 160  62
139 160  62 139 161  64 142 162  67 143 165  67 143 166  68 145 166  72 149 170  75 149
169  79 152 173  81 152 171  85 156 176  87 156 175  89 158 176  92 160 178  92 160 179
 95 162 180  98 164 181  98 164 181  98 163 180  98 163 181 101 164 181 104 166 183 102
164 182 104 166 184 105 166 184 105 167 183 105 166 182 102 165 182 102 165 182 101 163
181 102 164 182  99 164 181  98 163 180  95 161 179  97 162 180  95 160 178  91 158 177
 90 156 176  87 156 174  84 154 173  83 153 173  80 152 172  76 150 171  74 148 168  69
146 166  65 143 165  66 143 165  64 143 165  61 141 163  61 141 164  60 141 163  58 139
162  58 141 163  55 139 162  53 137 160  52 137 160  52 137 160
 48 123 143  51 125 146  53 129 150  55 131 152  57 133 154  56 134 155  57 136 158  58
136 157  60 138 160  61 138 160  62 140 162  63 141 163  62 142 163  66 143 165  67 144
167  74 149 169  75 150 170  80 152 173  82 154 173  83 155 175  84 154 174  87 155 175
 90 158 177  91 159 177  91 159 177  91 158 177  95 162 178  95 161 179  95 160 178  96
160 179  97 161 179  98 161 180  96 160 178  96 162 179  98 162 179  97 161 179  97 160
178  95 160 178  95 160 179  93 159 177  92 158 177  90 157 175  87 155 173  87 156 174
 85 153 174  81 153 172  79 151 170  75 148 168  74 147 168  71 145 166  65 143 164  63
141 163  64 142 163  62 140 163  59 139 162  58 140 162  57 137 161  56 138 161  55 137
159  52 135 158  49 134 158  51 136 159  50 135 159  47 133 158
 45 120 142  45 123 143  46 126 146  50 128 150  52 130 152  52 131 153  50 132 154  54
134 156  57 136 157  57 138 159  56 137 159  57 137 160  61 139 161  61 139 162  62 141
163  63 142 163  69 144 167  74 149 169  74 149 169  73 148 169  79 152 172  82 153 173
 85 154 174  83 155 173  85 155 175  87 156 174  90 157 175  91 157 176  87 157 175  91
157 175  93 158 177  93 158 177  91 156 175  91 156 175  91 157 175  91 157 175  90 156
175  87 155 173  89 157 174  87 155 174  86 153 171  82 151 171  81 151 171  80 150 170
 79 150 170  75 147 168  71 146 166  69 144 165  68 143 164  64 142 163  58 138 160  56
137 159  58 138 160  58 138 160  56 136 159  51 134 157  52 134 157  52 135 158  51 134
157  46 132 155  45 131 156  46 133 156  46 132 156  43 131 155
 39 117 139  42 121 142  43 123 145  43 125 146  48 128 149  47 128 151  47 129 151  49
130 152  50 132 154  52 133 156  52 133 156  52 134 157  55 137 159  56 137 160  57 138
160  57 138 160  62 142 164  66 143 165  67 144 166  69 145 166  72 147 168  73 148 169
 76 150 170  77 150 170  78 151 170  79 151 171  83 153 172  83 153 172  82 152 172  84
154 172  86 154 173  84 153 171  84 154 172  83 153 171  85 152 171  85 153 171  83 152
171  82 152 171  81 151 171  80 150 169  79 150 169  76 147 166  74 147 167  74 148 166
 70 144 165  68 144 165  66 142 163  63 140 161  58 137 160  57 136 158  54 136 158  53
134 157  53 135 158  52 133 156  50 135 157  49 133 155  48 131 155  47 132 155  44 130
154  42 130 154  43 129 153  43 130 155  43 130 154  42 130 155
 37 116 139  39 120 142  40 122 144  41 123 146  44 126 148  44 127 148  44 128 151  47
130 151  47 132 154  49 131 154  52 134 157  51 134 156  52 134 157  53 136 158  54 137
159  53 136 159  56 138 160  59 139 162  62 141 163  63 142 164  67 145 166  69 146 167
 71 146 167  72 147 167  72 147 167  74 148 167  76 149 170  76 149 169  77 150 169  78
150 169  79 150 170  79 151 170  80 151 169  78 150 169  78 149 168  79 150 169  77 149
168  76 148 168  76 148 167  75 147 166  73 146 166  71 145 165  68 143 163  67 141 162
 66 142 162  62 140 162  57 137 158  57 135 158  55 135 158  55 135 157  52 134 156  52
135 156  51 133 155  52 134 157  48 132 155  47 131 155  46 131 155  46 130 154  44 129
153  43 130 154  43 129 153  44 130 155  44 131 155  44 131 154
 37 118 140  38 120 142  39 121 145  40 124 146  41 125 147  44 127 150  44 129 151  45
129 152  47 130 154  48 132 154  48 132 155  49 133 156  52 134 158  51 134 156  52 136
159  51 135 158  53 136 159  54 137 159  57 138 160  58 140 162  61 141 163  64 143 163
 67 144 165  67 144 165  69 145 167  71 146 167  73 148 168  75 149 168  72 148 168  73
148 167  75 148 167  76 147 167  75 148 168  74 148 168  75 148 167  73 147 166  73 146
166  72 146 167  72 146 165  70 145 164  69 143 164  66 143 163  65 142 163  62 139 161
 61 139 160  58 137 160  53 134 157  52 134 157  53 134 157  53 134 156  51 133 156  51
133 156  50 132 156  48 132 154  46 131 153  46 132 155  45 130 152  45 130 154  43 129
153  41 128 152  43 130 154  43 130 153  44 131 155  42 129 154
 36 117 140  38 120 143  37 120 144  40 123 147  39 124 147  40 127 149  40 126 149  43
129 152  45 130 153  46 130 153  43 130 154  46 132 155  48 133 156  50 135 158  49 133
156  50 135 158  52 136 159  52 135 159  52 136 159  54 137 161  55 138 161  57 139 161
 61 142 163  63 142 165  63 142 164  66 144 165  67 144 165  67 145 166  67 144 165  67
145 165  70 145 166  69 144 165  69 145 166  68 145 166  69 144 164  69 145 164  67 143
164  66 142 163  66 142 162  65 141 162  62 140 161  60 138 160  59 138 160  56 137 159
 54 135 157  51 134 156  51 133 155  50 133 155  51 134 155  49 131 154  47 132 156  45
131 154  47 131 155  46 131 153  44 130 153  43 130 153  43 130 154  42 129 152  41 129
153  40 129 153  40 129 153  41 129 154  43 131 155  40 130 154
 33 116 139  35 119 143  35 121 144  35 122 145  34 122 146  35 124 148  37 126 149  38
126 151  40 127 151  41 129 153  42 129 153  41 131 154  42 130 153  44 133 155  44 132
156  46 134 157  45 134 157  48 134 158  48 135 159  47 134 157  48 135 159  49 135 159
 53 138 161  53 139 161  54 138 161  57 140 162  59 140 163  59 140 162  60 140 162  60
140 163  63 141 164  61 141 163  62 141 163  60 139 162  61 139 162  60 139 160  58 138
160  58 138 159  57 138 159  57 138 160  54 137 159  53 135 157  51 134 157  50 133 156
 48 133 155  47 130 154  46 131 154  46 130 153  44 130 153  45 131 154  44 130 154  43
131 154  42 130 153  41 129 153  40 129 153  38 128 151  38 127 151  39 128 152  36 127
152  37 129 152  36 127 152  38 129 154  39 129 155  39 129 154
 29 114 138  30 117 140  30 118 141  30 119 143  30 121 145  30 122 146  31 122 147  32
124 149  32 123 149  33 125 150  36 128 152  36 128 153  38 129 155  37 130 155  39 132
156  40 131 155  41 132 157  40 130 157  41 133 157  43 133 158  43 134 158  41 133 157
 44 134 159  45 135 158  47 134 159  49 136 161  49 135 159  50 136 160  52 137 160  51
135 159  51 135 158  51 135 158  53 136 159  53 136 159  52 135 159  51 134 157  51 134
158  51 135 158  48 132 156  46 132 155  45 131 154  44 131 154  43 130 153  42 129 153
 41 129 154  42 130 154  42 129 154  40 128 152  37 127 151  39 128 152  39 128 152  39
127 152  35 126 151  35 126 151  34 127 151  33 126 151  33 125 151  32 126 151  32 127
152  33 127 152  33 126 152  33 126 153  33 127 153  33 126 152
 23 111 135  23 112 138  25 115 140  25 117 142  23 116 142  25 119 145  25 120 146  25
120 147  25 122 148  26 123 148  28 124 150  28 124 151  29 125 151  30 126 152  32 128
153  35 129 154  35 130 156  33 129 155  34 129 156  35 130 156  37 131 157  36 131 156
 35 129 156  37 131 156  38 130 156  38 131 157  37 131 157  39 130 156  40 130 157  40
130 155  42 131 156  41 130 154  41 130 155  43 131 156  41 130 154  39 129 153  40 129
154  39 128 154  39 129 153  36 126 152  35 126 152  37 127 151  37 128 151  35 126 151
 34 125 150  35 127 152  35 127 151  34 126 151  32 125 150  32 124 150  32 124 149  32
124 150  28 124 149  27 123 149  27 124 150  27 124 150  27 124 149  24 122 148  27 124
151  28 124 151  28 126 151  26 124 151  26 124 150  27 126 152
 17 106 131  17 109 134  18 112 138  19 114 140  19 115 141  19 117 144  17 116 143  18
118 145  20 119 146  20 121 147  20 120 148  21 121 150  23 123 151  25 124 150  25 125
152  25 125 152  26 126 153  28 126 154  28 128 154  28 127 155  29 128 155  29 127 154
 31 128 155  30 128 154  30 128 155  32 129 156  32 128 154  32 127 154  31 126 152  31
127 153  32 127 153  33 126 152  32 126 152  31 125 151  32 127 152  32 126 150  32 126
153  31 125 151  31 125 149  31 124 150  32 125 150  30 125 151  29 123 149  29 124 149
 31 124 150  28 124 149  28 123 149  27 123 149  26 123 149  27 124 150  25 122 150  23
123 148  21 121 148  22 120 148  20 120 147  21 121 149  21 120 148  22 121 149  21 121
149  21 122 150  21 122 150  23 123 150  23 124 151  21 122 151
 16 106 131  16 108 134  16 110 136  16 112 138  16 113 140  17 115 142  16 116 143  17
117 144  17 118 145  18 119 147  18 120 147  19 121 148  19 121 149  22 123 151  21 123
151  23 124 152  24 125 152  25 125 153  24 126 153  25 125 153  26 126 153  26 126 154
 27 127 154  27 126 153  27 125 153  28 127 154  29 127 154  29 127 154  30 126 153  30
125 152  30 125 152  30 125 151  30 125 151  30 125 150  30 125 150  30 124 151  30 125
151  30 124 151  28 123 149  29 123 150  28 124 150  28 123 150  26 122 148  27 122 148
 26 121 148  25 122 148  25 121 148  24 122 148  23 120 147  23 121 147  21 120 147  21
121 148  19 120 147  20 120 148  20 120 148  19 120 147  20 121 148  19 120 148  20 121
149  20 122 149  20 122 150  20 122 150  20 123 151  20 123 151
 15 106 131  16 109 134  16 110 136  16 112 138  17 114 141  17 116 142  17 116 143  17
117 145  17 117 145  17 118 146  17 119 147  18 120 148  19 122 148  20 122 150  20 122
151  21 124 151  23 125 152  23 125 152  24 125 152  25 126 153  24 125 153  25 125 153
 26 126 153  27 127 154  27 125 153  27 126 153  27 126 152  28 126 153  27 124 152  28
125 151  29 125 151  28 123 150  29 124 150  28 124 150  29 123 150  29 123 149  27 123
149  28 123 149  28 124 150  26 121 148  26 122 147  27 122 148  26 121 148  26 122 148
 24 121 147  24 121 147  23 121 148  22 122 147  22 121 147  20 120 146  19 119 146  19
119 146  20 120 148  19 120 147  20 120 148  20 120 148  20 121 149  19 120 148  20 121
149  20 122 150  21 123 151  20 122 149  20 122 150  20 122 150
 16 106 131  17 109 134  16 110 136  16 111 138  16 114 140  17 115 141  17 115 143  16
116 143  16 117 145  18 119 146  17 119 147  18 120 148  17 120 148  17 120 148  19 122
149  20 122 151  21 124 151  21 124 151  22 124 152  23 125 152  23 125 152  24 125 152
 23 124 152  25 126 153  26 126 153  26 125 152  26 124 152  26 125 151  26 124 151  27
124 151  26 122 149  28 124 150  27 123 149  26 122 149  26 123 149  26 122 149  27 122
148  27 122 148  26 122 148  26 121 148  26 121 147  25 121 148  25 121 148  24 120 147
 23 120 147  22 120 146  22 120 146  21 120 147  20 120 146  19 119 146  19 119 146  19
119 147  19 120 147  19 120 148  20 120 147  20 121 149  20 120 148  20 120 148  20 121
149  20 122 149  19 121 148  20 122 150  21 122 149  20 123 151
 15 105 129  16 108 133  16 109 135  16 111 137  16 113 139  16 114 141  17 115 143  17
117 144  17 117 145  17 118 146  17 119 146  17 120 147  17 119 147  18 121 149  18 121
150  18 122 149  19 123 150  20 122 151  20 124 151  21 124 151  22 124 152  23 125 152
 23 124 152  22 125 152  24 125 152  24 124 151  25 125 152  25 125 151  25 125 150  25
124 150  25 122 149  26 123 149  25 122 149  25 122 148  26 123 149  26 123 149  25 122
149  25 121 148  25 122 149  24 121 147  24 122 148  23 120 147  22 120 146  22 120 146
 22 121 147  22 119 146  19 118 145  19 119 146  19 118 146  20 119 146  19 119 146  19
119 147  20 120 147  20 121 148  19 119 147  19 120 148  20 121 148  20 120 148  19 120
148  20 121 149  20 122 150  19 121 149  20 122 150  21 123 151
